<svg width="377" height="115" viewBox="0 0 377 115" fill="none" xmlns="http://www.w3.org/2000/svg">
<g clip-path="url(#clip0_211_2329)">
<g clip-path="url(#clip1_211_2329)">
<g clip-path="url(#clip2_211_2329)">
<path d="M33.1457 32.0623L33.1457 32.0623C33.277 31.9713 33.3888 31.8551 33.4747 31.7205L33.7681 31.9078L33.4748 31.7205C33.5607 31.5859 33.619 31.4356 33.6464 31.2782C33.6737 31.1208 33.6695 30.9596 33.6339 30.8039L33.9732 30.7265L33.6339 30.8039C33.5984 30.6482 33.5323 30.5011 33.4394 30.3712L33.4378 30.369C32.1307 28.5111 30.3498 27.0372 28.2802 26.1006L27.7755 25.8722L28.2003 25.5167C29.4601 24.4622 30.3643 23.0451 30.7898 21.4582C31.2153 19.8714 31.1414 18.192 30.5782 16.6487C30.015 15.1054 28.9899 13.7731 27.6424 12.8333C26.2948 11.8935 24.6904 11.3919 23.0475 11.3967L23.0459 11.3967C22.3148 11.3954 21.5871 11.4964 20.8839 11.6966L20.8777 11.6984L20.8777 11.6983C20.7215 11.7396 20.5751 11.8116 20.447 11.9101C20.3189 12.0085 20.2117 12.1315 20.1315 12.2718C20.0514 12.4121 20 12.5669 19.9803 12.7273C19.9606 12.8876 19.973 13.0503 20.0167 13.2058C20.0605 13.3614 20.1348 13.5066 20.2352 13.6332L19.9626 13.8495L20.2352 13.6332C20.3356 13.7597 20.4603 13.865 20.6018 13.943L20.4339 14.2478L20.6018 13.943C20.7433 14.0209 20.8989 14.0699 21.0596 14.0871C21.2202 14.1043 21.3827 14.0894 21.5375 14.0432L21.5415 14.042L21.5415 14.042C22.0312 13.9023 22.538 13.8319 23.0472 13.8329M33.1457 32.0623L23.0465 14.1809M33.1457 32.0623L33.1416 32.0652C32.9385 32.2104 32.6948 32.2882 32.4451 32.2874C32.2497 32.2863 32.0575 32.2386 31.8842 32.1484C31.711 32.0583 31.5618 31.9283 31.4487 31.7691M33.1457 32.0623L31.1644 31.9699M23.0472 13.8329L23.0465 14.1809M23.0472 13.8329C23.047 13.8329 23.0467 13.8329 23.0465 13.8329V14.1809M23.0472 13.8329C24.5238 13.8331 25.9399 14.4197 26.9841 15.4639C28.0284 16.5082 28.6151 17.9246 28.6151 19.4015C28.6151 20.8783 28.0284 22.2947 26.9841 23.339C25.9398 24.3833 24.5234 24.97 23.0465 24.97C22.7235 24.97 22.4136 25.0983 22.1852 25.3268C21.9567 25.5552 21.8284 25.8651 21.8284 26.1881C21.8284 26.5112 21.9567 26.821 22.1852 27.0495C22.4136 27.2779 22.7235 27.4063 23.0465 27.4063H23.0469C24.6943 27.4081 26.3173 27.8053 27.7793 28.5645C29.2413 29.3237 30.4996 30.4226 31.4487 31.7691M23.0465 14.1809C24.4311 14.1809 25.759 14.7309 26.738 15.71C27.717 16.689 28.267 18.0169 28.267 19.4015C28.267 20.786 27.717 22.1139 26.738 23.0929C25.759 24.072 24.4311 24.622 23.0465 24.622C22.6312 24.622 22.2328 24.787 21.9391 25.0807C21.6454 25.3744 21.4804 25.7728 21.4804 26.1881C21.4804 26.6035 21.6454 27.0019 21.9391 27.2956C22.2328 27.5893 22.6312 27.7543 23.0465 27.7543C24.6383 27.756 26.2063 28.1398 27.6189 28.8734C29.0315 29.6069 30.2474 30.6688 31.1644 31.9699M31.4487 31.7691C31.4486 31.7689 31.4485 31.7687 31.4483 31.7685L31.1644 31.9699M31.4487 31.7691C31.4488 31.7692 31.4488 31.7693 31.4489 31.7693L31.1644 31.9699M17.5628 25.5172L17.14 25.8729L17.6434 26.1006C19.713 27.0372 21.4939 28.5111 22.801 30.369L22.806 30.3761L22.8113 30.3829C22.9129 30.513 22.9869 30.6624 23.029 30.8219C23.0711 30.9815 23.0803 31.148 23.056 31.3112C23.0318 31.4744 22.9747 31.6311 22.8881 31.7715C22.8015 31.912 22.6873 32.0335 22.5524 32.1285C22.4174 32.2235 22.2646 32.2901 22.1032 32.3242C21.9417 32.3584 21.775 32.3593 21.6132 32.3271C21.4513 32.2949 21.2977 32.2301 21.1617 32.1367C21.0256 32.0433 20.91 31.9232 20.8217 31.7838L20.8173 31.7767L20.8125 31.7699C19.8653 30.4208 18.6073 29.3197 17.1447 28.5595C15.6821 27.7993 14.058 27.4025 12.4097 27.4025C10.7614 27.4025 9.1373 27.7993 7.67473 28.5595C6.21216 29.3197 4.95412 30.4208 4.00696 31.7699L4.00619 31.771C3.89485 31.9309 3.74639 32.0614 3.57355 32.1514C3.4007 32.2413 3.20862 32.288 3.01377 32.2874L3.01164 32.2874C2.76175 32.2883 2.51792 32.2105 2.31462 32.0652L2.31295 32.064C2.04943 31.878 1.87045 31.5951 1.81527 31.2773C1.7601 30.9596 1.83315 30.633 2.0184 30.369C3.3255 28.5111 5.10645 27.0372 7.17607 26.1006L7.67938 25.8729L7.25662 25.5172C6.0002 24.4602 5.09918 23.0425 4.67572 21.4562C4.25227 19.8698 4.32686 18.1916 4.88939 16.6491C5.45191 15.1066 6.47516 13.7744 7.82041 12.8331C9.16566 11.8917 10.7678 11.3869 12.4097 11.3869C14.0516 11.3869 15.6538 11.8917 16.999 12.8331C18.3443 13.7744 19.3675 15.1066 19.93 16.6491C20.4926 18.1916 20.5672 19.8698 20.1437 21.4562C19.7203 23.0425 18.8192 24.4602 17.5628 25.5172ZM7.77963 16.3077C7.16775 17.2235 6.84116 18.3001 6.84116 19.4015C6.84116 20.8783 7.42784 22.2947 8.47215 23.339C9.51646 24.3833 10.9328 24.97 12.4097 24.97C13.5111 24.97 14.5877 24.6434 15.5034 24.0315C16.4192 23.4197 17.1329 22.55 17.5544 21.5324C17.9759 20.5149 18.0861 19.3953 17.8713 18.3151C17.6564 17.2349 17.1261 16.2427 16.3473 15.4639C15.5685 14.6851 14.5763 14.1548 13.4961 13.9399C12.4159 13.725 11.2962 13.8353 10.2787 14.2568C9.2612 14.6782 8.39151 15.392 7.77963 16.3077Z" fill="#4CAF4F" stroke="#4CAF4F" stroke-width="0.696069"/>
</g>
<g clip-path="url(#clip3_211_2329)">
<path d="M46.6219 20.5117V18.3523L51.6674 13.6805C52.0966 13.2653 52.4565 12.8915 52.7471 12.5593C53.0424 12.2271 53.2662 11.9018 53.4185 11.5834C53.5708 11.2605 53.6469 10.9121 53.6469 10.5383C53.6469 10.1231 53.5523 9.76549 53.3631 9.46557C53.174 9.16104 52.9156 8.92803 52.588 8.76653C52.2604 8.60043 51.8889 8.51737 51.4737 8.51737C51.0399 8.51737 50.6616 8.60504 50.3386 8.78038C50.0156 8.95571 49.7664 9.20718 49.5911 9.53478C49.4158 9.86238 49.3281 10.2523 49.3281 10.7045H46.4835C46.4835 9.77702 46.6935 8.97186 47.1133 8.28898C47.5332 7.60609 48.1215 7.07778 48.8782 6.70403C49.6349 6.33029 50.507 6.14342 51.4944 6.14342C52.5095 6.14342 53.3931 6.32337 54.1452 6.68327C54.9019 7.03856 55.4902 7.53226 55.9101 8.1644C56.33 8.79653 56.5399 9.52094 56.5399 10.3376C56.5399 10.8729 56.4338 11.4012 56.2216 11.9226C56.0139 12.444 55.6425 13.023 55.1073 13.6598C54.572 14.2919 53.8176 15.0509 52.844 15.9368L50.7746 17.9647V18.0616H56.7268V20.5117H46.6219ZM62.1305 18.5738L62.0544 19.3351C61.9944 19.9442 61.879 20.5509 61.7083 21.1554C61.5422 21.7644 61.3669 22.3158 61.1823 22.8095C61.0023 23.3032 60.857 23.6908 60.7463 23.9723H58.836C58.9052 23.7001 58.9998 23.3194 59.1198 22.8303C59.2398 22.3458 59.3528 21.8014 59.4589 21.1969C59.5651 20.5925 59.632 19.9765 59.6596 19.349L59.6942 18.5738H62.1305ZM64.7986 20.5117V18.3523L69.8441 13.6805C70.2732 13.2653 70.6331 12.8915 70.9238 12.5593C71.2191 12.2271 71.4429 11.9018 71.5952 11.5834C71.7474 11.2605 71.8236 10.9121 71.8236 10.5383C71.8236 10.1231 71.729 9.76549 71.5398 9.46557C71.3506 9.16104 71.0922 8.92803 70.7646 8.76653C70.437 8.60043 70.0656 8.51737 69.6503 8.51737C69.2166 8.51737 68.8382 8.60504 68.5152 8.78038C68.1923 8.95571 67.9431 9.20718 67.7678 9.53478C67.5924 9.86238 67.5048 10.2523 67.5048 10.7045H64.6602C64.6602 9.77702 64.8701 8.97186 65.29 8.28898C65.7099 7.60609 66.2982 7.07778 67.0549 6.70403C67.8116 6.33029 68.6837 6.14342 69.6711 6.14342C70.6862 6.14342 71.5698 6.32337 72.3219 6.68327C73.0786 7.03856 73.6669 7.53226 74.0868 8.1644C74.5067 8.79653 74.7166 9.52094 74.7166 10.3376C74.7166 10.8729 74.6105 11.4012 74.3982 11.9226C74.1906 12.444 73.8192 13.023 73.2839 13.6598C72.7487 14.2919 71.9943 15.0509 71.0207 15.9368L68.9513 17.9647V18.0616H74.9035V20.5117H64.7986ZM76.5559 18.0201V15.66L82.4735 6.33721H84.5083V9.60399H83.304L79.5735 15.5077V15.6185H87.9827V18.0201H76.5559ZM83.3594 20.5117V17.3003L83.4147 16.2552V6.33721H86.2247V20.5117H83.3594ZM95.1565 20.7055C94.1783 20.7055 93.3062 20.5256 92.5403 20.1657C91.7789 19.8058 91.1745 19.3097 90.7269 18.6776C90.2794 18.0455 90.0464 17.3211 90.0279 16.5044H92.9348C92.9671 17.0535 93.1978 17.4987 93.6269 17.8402C94.056 18.1816 94.5659 18.3523 95.1565 18.3523C95.6271 18.3523 96.0424 18.2485 96.4023 18.0409C96.7668 17.8286 97.0505 17.5356 97.2536 17.1619C97.4612 16.7835 97.565 16.3498 97.565 15.8607C97.565 15.3624 97.4589 14.924 97.2466 14.5457C97.039 14.1673 96.7506 13.872 96.3815 13.6598C96.0124 13.4475 95.5902 13.3391 95.1149 13.3345C94.6997 13.3345 94.2959 13.4199 93.9037 13.5906C93.5162 13.7613 93.2139 13.9943 92.9971 14.2896L90.3324 13.8121L91.0038 6.33721H99.669V8.7873H93.4746L93.1078 12.3378H93.1909C93.44 11.9872 93.8161 11.6965 94.319 11.4658C94.8219 11.2351 95.3849 11.1197 96.0078 11.1197C96.8614 11.1197 97.6227 11.3204 98.2917 11.7219C98.9608 12.1233 99.4891 12.6747 99.8767 13.376C100.264 14.0727 100.456 14.8756 100.451 15.7846C100.456 16.7397 100.234 17.5887 99.7867 18.3316C99.3438 19.0698 98.7232 19.6512 97.9249 20.0757C97.1313 20.4956 96.2085 20.7055 95.1565 20.7055ZM105.317 18.5738L105.241 19.3351C105.181 19.9442 105.065 20.5509 104.895 21.1554C104.728 21.7644 104.553 22.3158 104.369 22.8095C104.189 23.3032 104.043 23.6908 103.932 23.9723H102.022C102.091 23.7001 102.186 23.3194 102.306 22.8303C102.426 22.3458 102.539 21.8014 102.645 21.1969C102.751 20.5925 102.818 19.9765 102.846 19.349L102.88 18.5738H105.317ZM112.767 20.7055C111.734 20.7055 110.813 20.5279 110.006 20.1726C109.203 19.8127 108.568 19.319 108.102 18.6915C107.641 18.0593 107.403 17.3303 107.39 16.5044H110.407C110.426 16.8504 110.539 17.155 110.746 17.418C110.959 17.6764 111.24 17.8771 111.591 18.0201C111.941 18.1631 112.336 18.2347 112.774 18.2347C113.231 18.2347 113.635 18.1539 113.985 17.9924C114.336 17.8309 114.611 17.6071 114.809 17.3211C115.007 17.035 115.107 16.7051 115.107 16.3313C115.107 15.953 115.001 15.6185 114.788 15.3278C114.581 15.0325 114.281 14.8018 113.889 14.6357C113.501 14.4696 113.04 14.3865 112.504 14.3865H111.182V12.1856H112.504C112.956 12.1856 113.356 12.1071 113.702 11.9503C114.052 11.7934 114.325 11.5765 114.518 11.2997C114.712 11.0182 114.809 10.6906 114.809 10.3169C114.809 9.96159 114.724 9.65014 114.553 9.38252C114.387 9.11029 114.152 8.89804 113.847 8.74577C113.547 8.59351 113.196 8.51737 112.795 8.51737C112.389 8.51737 112.018 8.5912 111.681 8.73885C111.344 8.88189 111.074 9.08721 110.871 9.35483C110.668 9.62245 110.559 9.93621 110.546 10.2961H107.673C107.687 9.47941 107.92 8.75961 108.372 8.13671C108.825 7.51381 109.434 7.02702 110.2 6.67635C110.97 6.32106 111.84 6.14342 112.809 6.14342C113.787 6.14342 114.643 6.32106 115.377 6.67635C116.11 7.03163 116.68 7.5115 117.086 8.11595C117.497 8.71578 117.7 9.38944 117.695 10.1369C117.7 10.9305 117.453 11.5927 116.955 12.1233C116.461 12.6539 115.817 12.9907 115.024 13.1338V13.2445C116.066 13.3783 116.86 13.7405 117.404 14.3311C117.954 14.9171 118.226 15.6508 118.221 16.5321C118.226 17.3395 117.993 18.057 117.522 18.6845C117.056 19.3121 116.412 19.8058 115.591 20.1657C114.77 20.5256 113.829 20.7055 112.767 20.7055ZM120.161 18.0201V15.66L126.078 6.33721H128.113V9.60399H126.909L123.178 15.5077V15.6185H131.588V18.0201H120.161ZM126.964 20.5117V17.3003L127.02 16.2552V6.33721H129.83V20.5117H126.964ZM139.561 6.33721V20.5117H136.564V9.1818H136.481L133.235 11.2166V8.5589L136.744 6.33721H139.561Z" fill="#4D4D4D"/>
<path d="M46.4538 30.412H47.6245L50.3771 37.1354H50.4721L53.2247 30.412H54.3954V38.5117H53.4778V32.3578H53.3987L50.8676 38.5117H49.9817L47.4505 32.3578H47.3714V38.5117H46.4538V30.412ZM58.7824 38.6383C58.1971 38.6383 57.6921 38.5091 57.2676 38.2507C56.8458 37.9897 56.5202 37.6258 56.2908 37.1591C56.064 36.6898 55.9506 36.144 55.9506 35.5218C55.9506 34.8995 56.064 34.3511 56.2908 33.8765C56.5202 33.3993 56.8392 33.0275 57.2479 32.7612C57.6592 32.4923 58.139 32.3578 58.6875 32.3578C59.0039 32.3578 59.3163 32.4106 59.6248 32.516C59.9333 32.6215 60.2141 32.7929 60.4672 33.0302C60.7203 33.2648 60.922 33.576 61.0723 33.9635C61.2226 34.3511 61.2977 34.8284 61.2977 35.3952V35.7907H56.6151V34.9839H60.3485C60.3485 34.6412 60.28 34.3353 60.1429 34.0664C60.0084 33.7974 59.8159 33.5852 59.5655 33.4296C59.3176 33.2741 59.025 33.1963 58.6875 33.1963C58.3157 33.1963 57.994 33.2886 57.7225 33.4731C57.4535 33.6551 57.2466 33.8923 57.1015 34.185C56.9565 34.4777 56.884 34.7914 56.884 35.1263V35.6642C56.884 36.1229 56.9631 36.5118 57.1213 36.8309C57.2821 37.1473 57.5049 37.3885 57.7897 37.5546C58.0745 37.7181 58.4053 37.7998 58.7824 37.7998C59.0276 37.7998 59.2491 37.7656 59.4468 37.697C59.6472 37.6258 59.8199 37.5203 59.9649 37.3806C60.1099 37.2382 60.222 37.0616 60.3011 36.8506L61.2028 37.1038C61.1079 37.4096 60.9484 37.6785 60.7243 37.9106C60.5001 38.14 60.2233 38.3192 59.8937 38.4484C59.5641 38.575 59.1937 38.6383 58.7824 38.6383ZM62.7176 38.5117V32.4369H63.6193V33.3861H63.6984C63.8249 33.0618 64.0293 32.81 64.3114 32.6307C64.5935 32.4488 64.9323 32.3578 65.3278 32.3578C65.7286 32.3578 66.0621 32.4488 66.3284 32.6307C66.5973 32.81 66.807 33.0618 66.9572 33.3861H67.0205C67.1761 33.0724 67.4094 32.8232 67.7206 32.6386C68.0317 32.4514 68.4048 32.3578 68.8398 32.3578C69.3829 32.3578 69.8272 32.5279 70.1726 32.868C70.518 33.2055 70.6907 33.7315 70.6907 34.446V38.5117H69.7573V34.446C69.7573 33.9978 69.6347 33.6775 69.3895 33.485C69.1443 33.2925 68.8556 33.1963 68.5234 33.1963C68.0963 33.1963 67.7654 33.3255 67.5307 33.5839C67.2961 33.8396 67.1787 34.1639 67.1787 34.5568V38.5117H66.2295V34.3511C66.2295 34.0057 66.1175 33.7276 65.8934 33.5166C65.6693 33.3031 65.3805 33.1963 65.0272 33.1963C64.7847 33.1963 64.5579 33.2609 64.347 33.3901C64.1387 33.5193 63.9699 33.6986 63.8408 33.9279C63.7142 34.1547 63.6509 34.417 63.6509 34.715V38.5117H62.7176ZM72.5238 38.5117V30.412H73.4572V33.4019H73.5363C73.6048 33.2965 73.6998 33.162 73.821 32.9985C73.945 32.8324 74.1216 32.6848 74.351 32.5556C74.583 32.4237 74.8968 32.3578 75.2923 32.3578C75.8038 32.3578 76.2547 32.4857 76.6449 32.7415C77.0351 32.9972 77.3396 33.3597 77.5585 33.8291C77.7773 34.2984 77.8867 34.8521 77.8867 35.4901C77.8867 36.1335 77.7773 36.6911 77.5585 37.1631C77.3396 37.6324 77.0364 37.9963 76.6488 38.2546C76.2612 38.5104 75.8143 38.6383 75.3081 38.6383C74.9179 38.6383 74.6054 38.5737 74.3708 38.4445C74.1361 38.3127 73.9555 38.1637 73.829 37.9976C73.7024 37.8288 73.6048 37.6891 73.5363 37.5784H73.4256V38.5117H72.5238ZM73.4414 35.4743C73.4414 35.9331 73.5086 36.3378 73.6431 36.6885C73.7775 37.0365 73.974 37.3094 74.2324 37.5072C74.4907 37.7023 74.8071 37.7998 75.1815 37.7998C75.5718 37.7998 75.8974 37.697 76.1584 37.4913C76.4221 37.2831 76.6198 37.0036 76.7517 36.6529C76.8861 36.2996 76.9534 35.9067 76.9534 35.4743C76.9534 35.0472 76.8874 34.6622 76.7556 34.3195C76.6264 33.9741 76.43 33.7012 76.1663 33.5008C75.9053 33.2978 75.577 33.1963 75.1815 33.1963C74.8019 33.1963 74.4828 33.2925 74.2244 33.485C73.9661 33.6748 73.7709 33.9411 73.6391 34.2839C73.5073 34.624 73.4414 35.0208 73.4414 35.4743ZM81.8614 38.6383C81.2761 38.6383 80.7712 38.5091 80.3467 38.2507C79.9248 37.9897 79.5992 37.6258 79.3698 37.1591C79.1431 36.6898 79.0297 36.144 79.0297 35.5218C79.0297 34.8995 79.1431 34.3511 79.3698 33.8765C79.5992 33.3993 79.9182 33.0275 80.3269 32.7612C80.7382 32.4923 81.2181 32.3578 81.7665 32.3578C82.0829 32.3578 82.3954 32.4106 82.7038 32.516C83.0123 32.6215 83.2931 32.7929 83.5462 33.0302C83.7994 33.2648 84.0011 33.576 84.1513 33.9635C84.3016 34.3511 84.3768 34.8284 84.3768 35.3952V35.7907H79.6941V34.9839H83.4276C83.4276 34.6412 83.359 34.3353 83.2219 34.0664C83.0875 33.7974 82.895 33.5852 82.6445 33.4296C82.3967 33.2741 82.104 33.1963 81.7665 33.1963C81.3948 33.1963 81.0731 33.2886 80.8015 33.4731C80.5326 33.6551 80.3256 33.8923 80.1806 34.185C80.0356 34.4777 79.9631 34.7914 79.9631 35.1263V35.6642C79.9631 36.1229 80.0422 36.5118 80.2004 36.8309C80.3612 37.1473 80.584 37.3885 80.8687 37.5546C81.1535 37.7181 81.4844 37.7998 81.8614 37.7998C82.1066 37.7998 82.3281 37.7656 82.5259 37.697C82.7263 37.6258 82.899 37.5203 83.044 37.3806C83.189 37.2382 83.301 37.0616 83.3801 36.8506L84.2819 37.1038C84.1869 37.4096 84.0274 37.6785 83.8033 37.9106C83.5792 38.14 83.3024 38.3192 82.9728 38.4484C82.6432 38.575 82.2728 38.6383 81.8614 38.6383ZM85.7966 38.5117V32.4369H86.6983V33.3545H86.7616C86.8723 33.0539 87.0727 32.81 87.3628 32.6228C87.6528 32.4356 87.9797 32.342 88.3436 32.342C88.4121 32.342 88.4978 32.3433 88.6007 32.346C88.7035 32.3486 88.7813 32.3526 88.834 32.3578V33.307C88.8024 33.2991 88.7299 33.2872 88.6165 33.2714C88.5057 33.253 88.3884 33.2437 88.2645 33.2437C87.9692 33.2437 87.7055 33.3057 87.4735 33.4296C87.2441 33.5509 87.0622 33.7196 86.9277 33.9359C86.7959 34.1494 86.73 34.3933 86.73 34.6675V38.5117H85.7966ZM94.2434 33.7974L93.4049 34.0347C93.3522 33.895 93.2744 33.7592 93.1716 33.6274C93.0714 33.4929 92.9343 33.3822 92.7603 33.2952C92.5863 33.2081 92.3635 33.1646 92.0919 33.1646C91.7201 33.1646 91.4103 33.2503 91.1625 33.4217C90.9173 33.5905 90.7947 33.8053 90.7947 34.0664C90.7947 34.2984 90.879 34.4816 91.0478 34.6161C91.2165 34.7506 91.4802 34.8626 91.8388 34.9523L92.7405 35.1737C93.2836 35.3056 93.6884 35.5073 93.9547 35.7789C94.221 36.0478 94.3541 36.3945 94.3541 36.819C94.3541 37.167 94.2539 37.4782 94.0535 37.7524C93.8558 38.0266 93.5789 38.2428 93.223 38.401C92.8671 38.5592 92.4531 38.6383 91.9811 38.6383C91.3615 38.6383 90.8487 38.5038 90.4427 38.2349C90.0366 37.9659 89.7796 37.5731 89.6715 37.0563L90.5574 36.8348C90.6417 37.1618 90.8013 37.407 91.0359 37.5704C91.2732 37.7339 91.583 37.8156 91.9653 37.8156C92.4004 37.8156 92.7458 37.7234 93.0015 37.5388C93.2599 37.3516 93.3891 37.1275 93.3891 36.8665C93.3891 36.6555 93.3153 36.4789 93.1676 36.3365C93.02 36.1915 92.7932 36.0834 92.4874 36.0122L91.4749 35.7749C90.9186 35.6431 90.5099 35.4387 90.2489 35.1619C89.9905 34.8824 89.8613 34.533 89.8613 34.1138C89.8613 33.7711 89.9575 33.4679 90.15 33.2042C90.3451 32.9405 90.6101 32.7336 90.945 32.5833C91.2824 32.433 91.6647 32.3578 92.0919 32.3578C92.693 32.3578 93.165 32.4897 93.5078 32.7533C93.8531 33.017 94.0984 33.365 94.2434 33.7974Z" fill="#717171"/>
</g>
<mask id="path-4-inside-1_211_2329" fill="white">
<path d="M219.011 21.7644C218.844 21.7644 218.688 21.7184 218.55 21.6442V21.6462C218.55 21.9099 218.447 22.1575 218.261 22.343C218.075 22.529 217.828 22.6315 217.564 22.6315C217.394 22.6315 217.237 22.5843 217.097 22.5082C217.083 22.7494 216.987 22.9749 216.815 23.1471C216.629 23.3331 216.381 23.4355 216.118 23.4355C215.594 23.4355 215.169 23.0239 215.138 22.508C214.976 22.5956 214.793 22.6415 214.604 22.6293C214.089 22.5956 213.685 22.1505 213.685 21.6159V17.1842L213.181 18.0585C212.989 18.3928 212.629 18.6005 212.241 18.6005C212.053 18.6005 211.866 18.5509 211.701 18.4563C211.495 18.3371 211.348 18.1457 211.287 17.9168C211.226 17.6877 211.257 17.4481 211.376 17.2427C211.376 17.2427 213.027 14.3838 213.128 14.2082C213.14 14.1818 213.174 14.1052 213.203 14.04C213.231 13.9776 213.255 13.9137 213.277 13.8494C213.775 12.4438 215.008 11.5707 216.495 11.5707C218.426 11.5707 219.996 13.274 219.996 15.3675L219.996 20.779C219.996 21.0424 219.894 21.2898 219.708 21.476C219.522 21.662 219.275 21.7645 219.011 21.7645L219.011 21.7644ZM216.495 12.0943C215.217 12.0943 214.199 12.8159 213.771 14.0245C213.744 14.1012 213.715 14.178 213.682 14.2528C213.585 14.4694 213.585 14.4694 213.558 14.5006L213.554 14.4974C213.42 14.7518 213.019 15.4453 211.83 17.5048C211.781 17.5892 211.768 17.6873 211.793 17.7811C211.818 17.8749 211.878 17.9539 211.962 18.0023C212.222 18.1517 212.579 18.0553 212.727 17.797L213.72 16.0767C213.78 15.9742 213.9 15.9238 214.015 15.955C214.129 15.9857 214.209 16.0895 214.209 16.2079V21.616C214.209 21.8712 214.402 22.0914 214.638 22.107C214.775 22.1142 214.902 22.0685 214.997 21.973C215.084 21.8861 215.132 21.7703 215.132 21.6465V18.1095C215.132 17.9649 215.25 17.8476 215.394 17.8476C215.539 17.8476 215.656 17.9647 215.656 18.1095L215.656 22.4505C215.656 22.705 215.863 22.9121 216.118 22.9121C216.241 22.9121 216.357 22.8642 216.444 22.7773C216.531 22.6902 216.579 22.5741 216.579 22.4505V18.1095C216.579 17.9649 216.696 17.8476 216.841 17.8476C216.986 17.8476 217.103 17.9647 217.103 18.1095L217.103 21.6058V21.6465C217.103 21.9008 217.31 22.108 217.565 22.108C217.688 22.108 217.804 22.0599 217.891 21.9727C217.978 21.8859 218.026 21.7701 218.026 21.6463V18.1093C218.026 17.9647 218.143 17.8474 218.288 17.8474C218.433 17.8474 218.55 17.9645 218.55 18.1093L218.55 20.7791C218.55 21.0338 218.757 21.2409 219.011 21.2409C219.135 21.2409 219.251 21.1929 219.338 21.1061C219.425 21.0189 219.473 20.9028 219.473 20.7791L219.473 15.3676C219.473 13.5629 218.137 12.0943 216.495 12.0943L216.495 12.0943Z"/>
</mask>
<path d="M219.011 21.7644C218.844 21.7644 218.688 21.7184 218.55 21.6442V21.6462C218.55 21.9099 218.447 22.1575 218.261 22.343C218.075 22.529 217.828 22.6315 217.564 22.6315C217.394 22.6315 217.237 22.5843 217.097 22.5082C217.083 22.7494 216.987 22.9749 216.815 23.1471C216.629 23.3331 216.381 23.4355 216.118 23.4355C215.594 23.4355 215.169 23.0239 215.138 22.508C214.976 22.5956 214.793 22.6415 214.604 22.6293C214.089 22.5956 213.685 22.1505 213.685 21.6159V17.1842L213.181 18.0585C212.989 18.3928 212.629 18.6005 212.241 18.6005C212.053 18.6005 211.866 18.5509 211.701 18.4563C211.495 18.3371 211.348 18.1457 211.287 17.9168C211.226 17.6877 211.257 17.4481 211.376 17.2427C211.376 17.2427 213.027 14.3838 213.128 14.2082C213.14 14.1818 213.174 14.1052 213.203 14.04C213.231 13.9776 213.255 13.9137 213.277 13.8494C213.775 12.4438 215.008 11.5707 216.495 11.5707C218.426 11.5707 219.996 13.274 219.996 15.3675L219.996 20.779C219.996 21.0424 219.894 21.2898 219.708 21.476C219.522 21.662 219.275 21.7645 219.011 21.7645L219.011 21.7644ZM216.495 12.0943C215.217 12.0943 214.199 12.8159 213.771 14.0245C213.744 14.1012 213.715 14.178 213.682 14.2528C213.585 14.4694 213.585 14.4694 213.558 14.5006L213.554 14.4974C213.42 14.7518 213.019 15.4453 211.83 17.5048C211.781 17.5892 211.768 17.6873 211.793 17.7811C211.818 17.8749 211.878 17.9539 211.962 18.0023C212.222 18.1517 212.579 18.0553 212.727 17.797L213.72 16.0767C213.78 15.9742 213.9 15.9238 214.015 15.955C214.129 15.9857 214.209 16.0895 214.209 16.2079V21.616C214.209 21.8712 214.402 22.0914 214.638 22.107C214.775 22.1142 214.902 22.0685 214.997 21.973C215.084 21.8861 215.132 21.7703 215.132 21.6465V18.1095C215.132 17.9649 215.25 17.8476 215.394 17.8476C215.539 17.8476 215.656 17.9647 215.656 18.1095L215.656 22.4505C215.656 22.705 215.863 22.9121 216.118 22.9121C216.241 22.9121 216.357 22.8642 216.444 22.7773C216.531 22.6902 216.579 22.5741 216.579 22.4505V18.1095C216.579 17.9649 216.696 17.8476 216.841 17.8476C216.986 17.8476 217.103 17.9647 217.103 18.1095L217.103 21.6058V21.6465C217.103 21.9008 217.31 22.108 217.565 22.108C217.688 22.108 217.804 22.0599 217.891 21.9727C217.978 21.8859 218.026 21.7701 218.026 21.6463V18.1093C218.026 17.9647 218.143 17.8474 218.288 17.8474C218.433 17.8474 218.55 17.9645 218.55 18.1093L218.55 20.7791C218.55 21.0338 218.757 21.2409 219.011 21.2409C219.135 21.2409 219.251 21.1929 219.338 21.1061C219.425 21.0189 219.473 20.9028 219.473 20.7791L219.473 15.3676C219.473 13.5629 218.137 12.0943 216.495 12.0943L216.495 12.0943Z" fill="#4CAF4F"/>
<path d="M219.011 21.7644V20.8363H222.29L219.498 22.5549L219.011 21.7644ZM218.55 21.6442H217.622V20.0935L218.988 20.8263L218.55 21.6442ZM218.261 22.343L217.605 21.6868L217.606 21.6859L218.261 22.343ZM217.097 22.5082L216.171 22.454L216.256 20.9933L217.541 21.6931L217.097 22.5082ZM216.815 23.1471L217.471 23.803L217.471 23.8033L216.815 23.1471ZM215.138 22.508L214.697 21.6915L215.978 20.999L216.064 22.453L215.138 22.508ZM214.604 22.6293L214.544 23.5555L214.543 23.5555L214.604 22.6293ZM213.685 17.1842L212.882 16.7203L214.613 13.7199V17.1842H213.685ZM213.181 18.0585L212.376 17.596L212.377 17.5945L213.181 18.0585ZM211.701 18.4563L211.24 19.2616L211.236 19.2592L211.701 18.4563ZM211.287 17.9168L212.183 17.6761L212.184 17.6772L211.287 17.9168ZM211.376 17.2427L210.573 16.7777L210.841 16.3146H211.376V17.2427ZM213.128 14.2082L213.973 14.5915L213.955 14.6317L213.933 14.6699L213.128 14.2082ZM213.203 14.04L212.355 13.6628L212.355 13.6628L213.203 14.04ZM213.277 13.8494L214.152 14.1593L214.152 14.1595L213.277 13.8494ZM219.996 15.3675L219.068 15.3675V15.3675H219.996ZM219.996 20.779L220.925 20.779V20.779H219.996ZM219.708 21.476L220.365 22.1316L220.365 22.1323L219.708 21.476ZM219.011 21.7645V22.6926H215.732L218.525 20.974L219.011 21.7645ZM216.495 12.0943V11.1662H217.725L217.387 12.3493L216.495 12.0943ZM213.771 14.0245L214.646 14.3344L214.645 14.3364L213.771 14.0245ZM213.682 14.2528L214.53 14.6302L214.529 14.6307L213.682 14.2528ZM213.558 14.5006L214.257 15.1112L213.65 15.8061L212.951 15.203L213.558 14.5006ZM213.554 14.4974L212.734 14.0628L213.28 13.0339L214.161 13.795L213.554 14.4974ZM211.83 17.5048L212.633 17.9689L212.633 17.9696L211.83 17.5048ZM211.793 17.7811L210.897 18.0224L210.896 18.0195L211.793 17.7811ZM211.962 18.0023L211.5 18.8071L211.498 18.8061L211.962 18.0023ZM212.727 17.797L211.922 17.335L211.923 17.3328L212.727 17.797ZM213.72 16.0767L212.917 15.6125L212.917 15.6115L213.72 16.0767ZM214.015 15.955L213.775 16.8515L213.773 16.8509L214.015 15.955ZM214.638 22.107L214.589 23.0339L214.577 23.0331L214.638 22.107ZM214.997 21.973L215.654 22.6293L215.653 22.6298L214.997 21.973ZM215.656 18.1095H216.584V18.1095L215.656 18.1095ZM215.656 22.4505H214.728V22.4504L215.656 22.4505ZM216.444 22.7773L217.101 23.4329L217.1 23.4342L216.444 22.7773ZM217.103 18.1095H218.031V18.1096L217.103 18.1095ZM217.103 21.6058H216.175V21.6058L217.103 21.6058ZM217.891 21.9727L218.547 22.6295L218.546 22.6301L217.891 21.9727ZM218.55 18.1093H219.478V18.1094L218.55 18.1093ZM218.55 20.7791H217.622V20.779L218.55 20.7791ZM219.338 21.1061L219.994 21.7624L219.993 21.763L219.338 21.1061ZM219.473 20.7791H218.545V20.7791L219.473 20.7791ZM219.473 15.3676H220.401V15.3677L219.473 15.3676ZM216.495 12.0943V13.0224H215.264L215.602 11.8394L216.495 12.0943ZM219.011 22.6925C218.669 22.6925 218.364 22.5979 218.111 22.4622L218.988 20.8263C219 20.8327 219.008 20.8352 219.011 20.836C219.014 20.8367 219.013 20.8363 219.011 20.8363V22.6925ZM219.478 21.6442V21.6462H217.622V21.6442H219.478ZM219.478 21.6462C219.478 22.1553 219.278 22.6397 218.917 23.0001L217.606 21.6859C217.613 21.6793 217.616 21.6736 217.618 21.669C217.62 21.6643 217.622 21.6572 217.622 21.6462H219.478ZM218.918 22.9993C218.557 23.3594 218.074 23.5596 217.564 23.5596V21.7034C217.575 21.7034 217.582 21.7015 217.587 21.6995C217.592 21.6975 217.598 21.694 217.605 21.6868L218.918 22.9993ZM217.564 23.5596C217.218 23.5596 216.909 23.4627 216.653 23.3232L217.541 21.6931C217.553 21.6997 217.561 21.7022 217.564 21.703C217.566 21.7037 217.566 21.7034 217.564 21.7034V23.5596ZM218.024 22.5623C217.997 23.0191 217.812 23.4622 217.471 23.803L216.158 22.4912C216.161 22.4877 216.163 22.4847 216.165 22.4808C216.167 22.4767 216.17 22.4682 216.171 22.454L218.024 22.5623ZM217.471 23.8033C217.111 24.1636 216.627 24.3636 216.118 24.3636V22.5075C216.128 22.5075 216.135 22.5055 216.14 22.5035C216.145 22.5016 216.151 22.4981 216.158 22.4908L217.471 23.8033ZM216.118 24.3636C215.093 24.3636 214.271 23.5595 214.212 22.563L216.064 22.453C216.065 22.4688 216.072 22.4826 216.083 22.4935C216.089 22.4988 216.095 22.5022 216.099 22.5042C216.104 22.506 216.109 22.5075 216.118 22.5075V24.3636ZM215.579 23.3245C215.28 23.4865 214.924 23.5799 214.544 23.5555L214.663 21.7032C214.663 21.7032 214.665 21.7034 214.67 21.7022C214.675 21.701 214.685 21.6981 214.697 21.6915L215.579 23.3245ZM214.543 23.5555C213.513 23.4879 212.757 22.6115 212.757 21.6159H214.613C214.613 21.6472 214.625 21.6714 214.639 21.6872C214.653 21.7025 214.662 21.7031 214.665 21.7032L214.543 23.5555ZM212.757 21.6159V17.1842H214.613V21.6159H212.757ZM214.489 17.6482L213.985 18.5224L212.377 17.5945L212.882 16.7203L214.489 17.6482ZM213.985 18.521C213.627 19.1449 212.959 19.5285 212.241 19.5285V17.6724C212.298 17.6724 212.35 17.6408 212.376 17.596L213.985 18.521ZM212.241 19.5285C211.89 19.5285 211.545 19.4365 211.24 19.2616L212.162 17.651C212.187 17.6653 212.215 17.6724 212.241 17.6724V19.5285ZM211.236 19.2592C210.819 19.0177 210.516 18.6245 210.39 18.1563L212.184 17.6772C212.183 17.674 212.181 17.6684 212.176 17.6626C212.172 17.6568 212.168 17.654 212.166 17.6534L211.236 19.2592ZM210.391 18.1574C210.265 17.6895 210.331 17.196 210.573 16.7777L212.179 17.7078C212.181 17.7055 212.183 17.7002 212.184 17.6927C212.185 17.6852 212.184 17.6792 212.183 17.6761L210.391 18.1574ZM211.376 16.3146C210.921 16.434 210.58 16.7656 210.578 16.7698C210.577 16.7713 210.576 16.7734 210.575 16.7741C210.575 16.7745 210.575 16.7752 210.574 16.7754C210.574 16.7755 210.574 16.7758 210.574 16.7759C210.574 16.7761 210.574 16.7761 210.574 16.7755C210.575 16.7744 210.576 16.7725 210.578 16.7699C210.581 16.7646 210.585 16.7567 210.591 16.7462C210.603 16.7253 210.621 16.6946 210.644 16.6553C210.689 16.5768 210.754 16.4645 210.832 16.3291C210.989 16.0584 211.198 15.6956 211.411 15.3273C211.837 14.5894 212.274 13.8328 212.323 13.7465L213.933 14.6699C213.882 14.7593 213.443 15.5199 213.018 16.2554C212.806 16.6238 212.596 16.9866 212.44 17.2574C212.361 17.3928 212.297 17.5052 212.251 17.5838C212.228 17.623 212.211 17.6539 212.198 17.6749C212.192 17.6855 212.188 17.6936 212.184 17.6992C212.183 17.7019 212.182 17.7042 212.181 17.7059C212.18 17.7066 212.18 17.7076 212.179 17.7085C212.179 17.7088 212.178 17.7099 212.178 17.7111C212.177 17.7119 212.176 17.7141 212.175 17.7156C212.172 17.7199 211.832 18.0515 211.376 18.1708V16.3146ZM212.283 13.825C212.293 13.8024 212.325 13.7298 212.355 13.6628L214.051 14.4171C214.023 14.4807 213.987 14.5612 213.973 14.5915L212.283 13.825ZM212.355 13.6628C212.368 13.6338 212.382 13.5968 212.403 13.5393L214.152 14.1595C214.127 14.2306 214.094 14.3215 214.051 14.4171L212.355 13.6628ZM212.403 13.5395C213.031 11.7649 214.613 10.6427 216.495 10.6427V12.4988C215.403 12.4988 214.519 13.1228 214.152 14.1593L212.403 13.5395ZM216.495 10.6427C219.007 10.6427 220.924 12.8336 220.924 15.3675H219.068C219.068 13.7143 217.844 12.4988 216.495 12.4988V10.6427ZM220.924 15.3675L220.925 20.779L219.068 20.779L219.068 15.3675L220.924 15.3675ZM220.925 20.779C220.925 21.288 220.725 21.7713 220.365 22.1316L219.051 20.8203C219.059 20.813 219.062 20.8067 219.064 20.8019C219.066 20.797 219.068 20.7898 219.068 20.779H220.925ZM220.365 22.1323C220.004 22.4925 219.521 22.6926 219.011 22.6926V20.8364C219.022 20.8364 219.029 20.8344 219.034 20.8324C219.039 20.8305 219.045 20.827 219.052 20.8197L220.365 22.1323ZM218.525 20.974L218.525 20.974L219.498 22.5549L219.498 22.5549L218.525 20.974ZM216.495 13.0224C215.612 13.0224 214.943 13.4944 214.646 14.3344L212.896 13.7146C213.455 12.1373 214.822 11.1662 216.495 11.1662V13.0224ZM214.645 14.3364C214.616 14.4185 214.578 14.5222 214.53 14.6302L212.834 13.8753C212.852 13.8338 212.871 13.784 212.897 13.7126L214.645 14.3364ZM214.529 14.6307C214.487 14.726 214.451 14.8065 214.424 14.8611C214.407 14.8949 214.38 14.9471 214.34 15.0048C214.3 15.0634 214.26 15.1075 214.257 15.1112L212.859 13.8899C212.861 13.8874 212.861 13.8882 212.859 13.8895C212.858 13.8912 212.854 13.8954 212.85 13.9011C212.845 13.9071 212.839 13.9148 212.832 13.924C212.825 13.9333 212.817 13.9431 212.81 13.9535C212.796 13.9747 212.785 13.9932 212.777 14.0072C212.769 14.0203 212.765 14.0293 212.764 14.0314C212.763 14.0335 212.763 14.0323 212.766 14.0255C212.769 14.019 212.774 14.0095 212.78 13.9958C212.786 13.9822 212.793 13.9658 212.803 13.9455C212.812 13.9253 212.822 13.902 212.834 13.8748L214.529 14.6307ZM212.951 15.203L212.948 15.1999L214.161 13.795L214.165 13.7982L212.951 15.203ZM214.374 14.9321C214.229 15.2061 213.814 15.9239 212.633 17.9689L211.026 17.0406C212.224 14.9668 212.61 14.2975 212.734 14.0628L214.374 14.9321ZM212.633 17.9696C212.707 17.8413 212.728 17.6864 212.69 17.5427L210.896 18.0195C210.808 17.6881 210.854 17.3372 211.026 17.0399L212.633 17.9696ZM212.689 17.5398C212.651 17.398 212.557 17.2739 212.426 17.1985L211.498 18.8061C211.2 18.634 210.985 18.3518 210.897 18.0224L212.689 17.5398ZM212.425 17.1975C212.319 17.1368 212.216 17.1372 212.145 17.1563C212.075 17.1754 211.984 17.2269 211.922 17.335L213.532 18.259C213.127 18.9637 212.203 19.2108 211.5 18.8071L212.425 17.1975ZM211.923 17.3328L212.917 15.6125L214.524 16.5409L213.53 18.2612L211.923 17.3328ZM212.917 15.6115C213.185 15.1487 213.733 14.9171 214.257 15.0591L213.773 16.8509C214.067 16.9306 214.374 16.7997 214.524 16.5419L212.917 15.6115ZM214.255 15.0585C214.776 15.198 215.137 15.6699 215.137 16.2079H213.281C213.281 16.5091 213.483 16.7733 213.775 16.8515L214.255 15.0585ZM215.137 16.2079V21.616H213.281V16.2079H215.137ZM215.137 21.616C215.137 21.5103 215.098 21.4141 215.034 21.3405C214.969 21.2671 214.856 21.1912 214.699 21.1809L214.577 23.0331C213.796 22.9817 213.281 22.3011 213.281 21.616H215.137ZM214.687 21.1802C214.578 21.1744 214.444 21.2146 214.342 21.3162L215.653 22.6298C215.36 22.9223 214.972 23.054 214.589 23.0338L214.687 21.1802ZM214.341 21.3167C214.253 21.4048 214.204 21.5255 214.204 21.6465H216.06C216.06 22.0151 215.916 22.3674 215.654 22.6293L214.341 21.3167ZM214.204 21.6465V18.1095H216.06V21.6465H214.204ZM214.204 18.1095C214.204 17.4523 214.737 16.9195 215.394 16.9195V18.7757C215.762 18.7757 216.06 18.4774 216.06 18.1095H214.204ZM215.394 16.9195C216.051 16.9195 216.584 17.4518 216.584 18.1095H214.728C214.728 18.4777 215.027 18.7757 215.394 18.7757V16.9195ZM216.584 18.1095L216.584 22.4505L214.728 22.4504L214.728 18.1095L216.584 18.1095ZM216.584 22.4505C216.584 22.1924 216.376 21.984 216.118 21.984V23.8402C215.35 23.8402 214.728 23.2176 214.728 22.4505H216.584ZM216.118 21.984C215.997 21.984 215.877 22.0327 215.789 22.1204L217.1 23.4342C216.838 23.6957 216.486 23.8402 216.118 23.8402V21.984ZM215.788 22.1217C215.7 22.2096 215.651 22.3297 215.651 22.4505H217.507C217.507 22.8185 217.363 23.1709 217.101 23.4329L215.788 22.1217ZM215.651 22.4505V18.1095H217.507V22.4505H215.651ZM215.651 18.1095C215.651 17.4527 216.183 16.9195 216.841 16.9195V18.7757C217.209 18.7757 217.507 18.4771 217.507 18.1095H215.651ZM216.841 16.9195C217.498 16.9195 218.031 17.4518 218.031 18.1095H216.175C216.175 18.4777 216.474 18.7757 216.841 18.7757V16.9195ZM218.031 18.1096L218.031 21.6059L216.175 21.6058L216.175 18.1095L218.031 18.1096ZM218.031 21.6058V21.6465H216.175V21.6058H218.031ZM218.031 21.6465C218.031 21.3878 217.822 21.1799 217.565 21.1799V23.036C216.798 23.036 216.175 22.4139 216.175 21.6465H218.031ZM217.565 21.1799C217.441 21.1799 217.322 21.23 217.236 21.3152L218.546 22.6301C218.286 22.8898 217.935 23.036 217.565 23.036V21.1799ZM217.236 21.3158C217.147 21.4044 217.098 21.5255 217.098 21.6463H218.954C218.954 22.0148 218.81 22.3674 218.547 22.6295L217.236 21.3158ZM217.098 21.6463V18.1093H218.954V21.6463H217.098ZM217.098 18.1093C217.098 17.4525 217.63 16.9193 218.288 16.9193V18.7755C218.656 18.7755 218.954 18.4769 218.954 18.1093H217.098ZM218.288 16.9193C218.945 16.9193 219.478 17.4516 219.478 18.1093H217.622C217.622 18.4775 217.921 18.7755 218.288 18.7755V16.9193ZM219.478 18.1094L219.478 20.7792L217.622 20.779L217.622 18.1092L219.478 18.1094ZM219.478 20.7791C219.478 20.5217 219.27 20.3128 219.011 20.3128V22.169C218.244 22.169 217.622 21.5459 217.622 20.7791H219.478ZM219.011 20.3128C218.889 20.3128 218.769 20.3621 218.682 20.4493L219.993 21.763C219.732 22.0236 219.381 22.169 219.011 22.169V20.3128ZM218.681 20.4499C218.593 20.5383 218.545 20.6589 218.545 20.7791H220.401C220.401 21.1467 220.257 21.4995 219.994 21.7624L218.681 20.4499ZM218.545 20.7791L218.545 15.3676L220.401 15.3677L220.401 20.7792L218.545 20.7791ZM218.545 15.3676C218.545 13.9909 217.544 13.0224 216.495 13.0224V11.1662C218.73 11.1662 220.401 13.1349 220.401 15.3676H218.545ZM215.602 11.8394L215.603 11.8393L217.387 12.3493L217.387 12.3493L215.602 11.8394Z" fill="#4CAF4F" mask="url(#path-4-inside-1_211_2329)"/>
<path d="M210.529 26.7394C210.404 26.8141 210.244 26.7738 210.169 26.6497C210.095 26.5257 210.135 26.3648 210.259 26.2904M210.529 26.7394L212.791 23.6948C213.01 23.5635 213.298 23.6153 213.433 23.8103M210.529 26.7394L213.561 24.9199H213.562L213.562 24.9197M210.529 26.7394L214.726 25.298C214.832 25.2344 214.907 25.1337 214.937 25.0142M210.259 26.2904L213.292 24.4708C213.398 24.4072 213.473 24.3064 213.503 24.1871M210.259 26.2904L210.29 26.3415L210.394 26.5149L210.394 26.5152L210.441 26.5934L210.498 26.6883L210.498 26.6882L210.498 26.6882L210.498 26.688M210.259 26.2904L210.29 26.3415M213.503 24.1871C213.536 24.0563 213.511 23.9225 213.433 23.8103M213.503 24.1871L213.578 24.2059L213.57 24.052C213.566 23.9461 213.535 23.8521 213.482 23.7766L213.482 23.7763L213.433 23.8103M213.503 24.1871L213.578 24.2059L213.585 24.3647L213.433 24.4558H213.433L213.323 24.5219L213.323 24.5219L213.323 24.522L210.29 26.3414M213.433 23.8103L213.482 23.7763L211.243 27.9288C211.338 27.8715 211.369 27.7476 211.312 27.6515C211.254 27.5561 211.13 27.5248 211.034 27.5822L214.067 25.7628C214.137 25.7209 214.21 25.6893 214.285 25.6676L214.755 25.3464L214.755 25.3464L214.781 25.3287C214.891 25.2533 214.964 25.1489 214.994 25.0287L214.994 25.0286L214.937 25.0142M210.29 26.3414C210.385 26.2844 210.51 26.3153 210.567 26.4108C210.567 26.411 210.567 26.4112 210.568 26.4114C210.625 26.5074 210.593 26.6309 210.498 26.688M210.29 26.3414C210.29 26.3415 210.29 26.3415 210.29 26.3415M210.29 26.3414L210.29 26.3415M210.498 26.688L213.531 24.8688L213.531 24.8688L213.531 24.8687C213.531 24.8686 213.531 24.8685 213.531 24.8685L213.561 24.9189L213.562 24.9191L213.562 24.9197M210.498 26.688L210.394 26.5151L210.394 26.5148L210.359 26.4563L210.29 26.3415M213.562 24.9197V24.8492C213.621 24.8109 213.674 24.7665 213.722 24.7169L214.221 24.4563L214.221 24.4563L214.249 24.4419C214.329 24.4 214.41 24.3804 214.487 24.3804C214.528 24.3804 214.571 24.3855 214.615 24.3964C214.615 24.3964 214.615 24.3964 214.615 24.3964C214.615 24.3964 214.615 24.3965 214.615 24.3965L214.713 24.0041M213.562 24.9197L214.251 24.5063C214.357 24.443 214.48 24.4244 214.601 24.4543C214.72 24.4841 214.821 24.5589 214.884 24.6647C214.948 24.7706 214.966 24.8948 214.937 25.0142M214.713 24.0041C214.713 24.0041 214.713 24.0041 214.713 24.0041M214.713 24.0041C214.952 24.0639 215.156 24.2148 215.282 24.4258L215.333 24.3952M214.713 24.0041L214.728 23.9462M214.713 24.0041L214.615 24.3964C214.751 24.4303 214.863 24.5137 214.935 24.6338C214.935 24.6339 214.935 24.634 214.935 24.634C214.936 24.634 214.936 24.6341 214.936 24.6341C215.008 24.7548 215.028 24.8932 214.994 25.0284L214.994 25.0286L214.937 25.0142M214.713 24.0041C214.713 24.0041 214.713 24.0041 214.713 24.0041L214.712 24.0039C214.641 23.9861 214.568 23.977 214.496 23.9764M214.713 24.0041L214.728 23.9462M214.275 26.1094L214.537 25.9525L214.807 26.1116C214.888 26.1593 214.949 26.2189 214.99 26.2879L214.99 26.2882C214.99 26.2882 214.99 26.2883 214.99 26.2884L214.939 26.319M214.275 26.1094L215.049 26.683C215.083 26.5473 215.062 26.409 214.99 26.2884L214.939 26.319M214.275 26.1094L214.306 26.1606M214.275 26.1094L214.275 26.1094L214.306 26.1606M214.939 26.319C214.808 26.1007 214.524 26.0297 214.306 26.1606M214.939 26.319C215.003 26.4248 215.022 26.5491 214.992 26.6686L214.306 26.1606M215.382 26.0387C215.384 26.0423 215.386 26.0459 215.388 26.0496L215.382 26.0387ZM215.382 26.0387C215.366 26.0509 215.35 26.0629 215.334 26.0745C215.335 26.0763 215.336 26.078 215.337 26.0798L215.382 26.0387ZM215.309 25.331C215.343 25.2669 215.369 25.1984 215.387 25.1267L215.309 25.331ZM215.309 25.331C215.326 25.3413 215.342 25.352 215.359 25.3631C215.396 25.2938 215.425 25.2195 215.445 25.141C215.508 24.886 215.469 24.6212 215.333 24.3952M215.309 25.331L215.387 25.1266C215.447 24.8875 215.409 24.6372 215.282 24.4262L215.282 24.4259C215.282 24.4259 215.282 24.4259 215.282 24.4258L215.333 24.3952M215.333 24.3952C215.198 24.1696 214.983 24.01 214.728 23.9462M214.728 23.9462L214.49 23.9164M214.49 23.9164C214.493 23.9364 214.494 23.9564 214.496 23.9764M214.49 23.9164C214.489 23.9164 214.488 23.9163 214.487 23.9163C214.33 23.9163 214.176 23.9565 214.034 24.0305M214.49 23.9164L214.034 24.0305M214.496 23.9764C214.496 23.9872 214.497 23.9981 214.498 24.009L214.487 24.0095L214.199 24.0228M214.496 23.9764C214.493 23.9763 214.49 23.9763 214.487 23.9763C214.389 23.9764 214.292 23.9921 214.199 24.0228M214.199 24.0228L214.034 24.0305M214.199 24.0228C214.151 24.0385 214.105 24.058 214.061 24.0813C214.044 24.0898 214.028 24.0988 214.013 24.1082L214.012 24.1083L213.979 24.1281M214.034 24.0305L213.77 24.254L213.77 24.2539L213.953 24.2998C213.953 24.2999 213.953 24.2999 213.953 24.3C213.967 24.2429 213.976 24.1854 213.979 24.1281M214.034 24.0305L213.963 23.8948M214.034 24.0305C214.027 23.8724 213.985 23.7167 213.905 23.5777C213.887 23.5858 213.869 23.5943 213.851 23.6031M213.979 24.1281C213.981 24.0963 213.981 24.0646 213.98 24.033C213.978 23.9864 213.972 23.9403 213.963 23.8948M213.979 24.1281L213.963 23.8948M213.963 23.8948L213.819 23.6191C213.83 23.6136 213.84 23.6083 213.851 23.6031M213.963 23.8948L213.814 23.5461C213.827 23.5647 213.84 23.5837 213.851 23.6031M213.963 23.8948C213.943 23.7927 213.905 23.6943 213.851 23.6031M215.043 25.7119L215.122 25.5774C215.088 25.6096 215.051 25.6392 215.011 25.6661C214.996 25.6764 214.981 25.6863 214.965 25.6958L214.965 25.696L214.931 25.7161L215.043 25.7119ZM207.632 23.5523L207.579 23.5245C207.569 23.542 207.545 23.5855 207.51 23.6497C207.501 23.6657 207.491 23.6828 207.481 23.7012C207.499 23.7103 207.517 23.7182 207.536 23.7252C207.567 23.6686 207.599 23.611 207.632 23.5523ZM211.779 28.8229C211.779 28.823 211.779 28.823 211.779 28.823L211.779 28.8229Z" fill="#4CAF4F" stroke="#4CAF4F" stroke-width="0.928093"/>
<path d="M223.481 24.3884L223.481 24.3885L223.481 24.3884ZM223.481 24.3884C223.383 24.2143 223.387 23.9998 223.49 23.8281L223.481 24.3884ZM217.739 23.9762C217.666 23.9768 217.594 23.986 217.522 24.004L217.739 23.9762ZM217.739 23.9762C217.74 23.9562 217.742 23.9363 217.744 23.9163L217.739 23.9762ZM223.063 24.7139L223.024 24.6429L223.063 24.7139ZM221.945 26.3414C221.945 26.3413 221.945 26.3413 221.944 26.3412L221.945 26.3413L221.945 26.3414ZM220.456 28.8234C220.456 28.8233 220.456 28.8232 220.456 28.8232L220.456 28.8234ZM220.455 28.8231L220.456 28.8231L220.455 28.8231Z" fill="#4CAF4F" stroke="#4CAF4F" stroke-width="0.928093"/>
<g clip-path="url(#clip4_211_2329)">
<path d="M244.787 18.0201V15.66L250.705 6.33721H252.74V9.60399H251.535L247.805 15.5077V15.6185H256.214V18.0201H244.787ZM251.591 20.5117V17.3003L251.646 16.2552V6.33721H254.456V20.5117H251.591ZM263.651 20.7055C262.922 20.7009 262.218 20.5786 261.54 20.3387C260.866 20.0988 260.262 19.7089 259.726 19.169C259.191 18.6292 258.767 17.914 258.453 17.0235C258.144 16.1329 257.989 15.0394 257.989 13.7428C257.994 12.5524 258.13 11.4889 258.398 10.5522C258.67 9.61091 259.057 8.81268 259.56 8.15747C260.068 7.50227 260.675 7.00395 261.381 6.66251C262.087 6.31645 262.878 6.14342 263.755 6.14342C264.7 6.14342 265.536 6.32799 266.26 6.69711C266.984 7.06163 267.566 7.55764 268.004 8.18516C268.447 8.81268 268.715 9.51633 268.807 10.2961H265.852C265.736 9.8024 265.494 9.41482 265.125 9.13336C264.756 8.8519 264.299 8.71117 263.755 8.71117C262.832 8.71117 262.13 9.11259 261.651 9.91545C261.175 10.7183 260.933 11.8095 260.924 13.1891H261.021C261.233 12.7693 261.519 12.4117 261.879 12.1164C262.243 11.8165 262.656 11.5881 263.118 11.4312C263.584 11.2697 264.075 11.1889 264.592 11.1889C265.432 11.1889 266.179 11.3873 266.834 11.7842C267.49 12.1764 268.006 12.7162 268.385 13.4037C268.763 14.0912 268.952 14.8779 268.952 15.7638C268.952 16.7235 268.729 17.5772 268.281 18.3246C267.838 19.0721 267.217 19.6581 266.419 20.0826C265.626 20.5025 264.703 20.7101 263.651 20.7055ZM263.637 18.3523C264.098 18.3523 264.511 18.2416 264.876 18.0201C265.24 17.7986 265.526 17.4987 265.734 17.1204C265.942 16.742 266.045 16.3175 266.045 15.8469C266.045 15.3762 265.942 14.954 265.734 14.5803C265.531 14.2066 265.25 13.9089 264.89 13.6875C264.53 13.466 264.119 13.3553 263.658 13.3553C263.312 13.3553 262.991 13.4199 262.696 13.549C262.405 13.6782 262.149 13.8582 261.927 14.0889C261.71 14.3196 261.54 14.5872 261.415 14.8917C261.291 15.1917 261.228 15.5123 261.228 15.8538C261.228 16.3106 261.332 16.7282 261.54 17.1065C261.752 17.4849 262.038 17.7871 262.398 18.0132C262.763 18.2393 263.175 18.3523 263.637 18.3523ZM273.719 18.5738L273.643 19.3351C273.583 19.9442 273.468 20.5509 273.297 21.1554C273.131 21.7644 272.956 22.3158 272.771 22.8095C272.591 23.3032 272.446 23.6908 272.335 23.9723H270.425C270.494 23.7001 270.589 23.3194 270.709 22.8303C270.829 22.3458 270.942 21.8014 271.048 21.1969C271.154 20.5925 271.221 19.9765 271.248 19.349L271.283 18.5738H273.719ZM281.17 20.7055C280.136 20.7055 279.216 20.5279 278.408 20.1726C277.605 19.8127 276.971 19.319 276.505 18.6915C276.044 18.0593 275.806 17.3303 275.792 16.5044H278.81C278.828 16.8504 278.941 17.155 279.149 17.418C279.361 17.6764 279.643 17.8771 279.993 18.0201C280.344 18.1631 280.738 18.2347 281.177 18.2347C281.634 18.2347 282.037 18.1539 282.388 17.9924C282.739 17.8309 283.013 17.6071 283.212 17.3211C283.41 17.035 283.509 16.7051 283.509 16.3313C283.509 15.953 283.403 15.6185 283.191 15.3278C282.983 15.0325 282.683 14.8018 282.291 14.6357C281.904 14.4696 281.442 14.3865 280.907 14.3865H279.585V12.1856H280.907C281.359 12.1856 281.758 12.1071 282.104 11.9503C282.455 11.7934 282.727 11.5765 282.921 11.2997C283.115 11.0182 283.212 10.6906 283.212 10.3169C283.212 9.96159 283.126 9.65014 282.956 9.38252C282.789 9.11029 282.554 8.89804 282.25 8.74577C281.95 8.59351 281.599 8.51737 281.198 8.51737C280.792 8.51737 280.42 8.5912 280.083 8.73885C279.746 8.88189 279.476 9.08721 279.273 9.35483C279.07 9.62245 278.962 9.93621 278.948 10.2961H276.076C276.09 9.47941 276.323 8.75961 276.775 8.13671C277.227 7.51381 277.836 7.02702 278.602 6.67635C279.373 6.32106 280.242 6.14342 281.211 6.14342C282.19 6.14342 283.045 6.32106 283.779 6.67635C284.513 7.03163 285.083 7.5115 285.489 8.11595C285.899 8.71578 286.102 9.38944 286.098 10.1369C286.102 10.9305 285.855 11.5927 285.357 12.1233C284.863 12.6539 284.22 12.9907 283.426 13.1338V13.2445C284.469 13.3783 285.263 13.7405 285.807 14.3311C286.356 14.9171 286.628 15.6508 286.624 16.5321C286.628 17.3395 286.395 18.057 285.925 18.6845C285.459 19.3121 284.815 19.8058 283.994 20.1657C283.172 20.5256 282.231 20.7055 281.17 20.7055ZM288.778 20.5117V18.3523L293.823 13.6805C294.253 13.2653 294.612 12.8915 294.903 12.5593C295.198 12.2271 295.422 11.9018 295.575 11.5834C295.727 11.2605 295.803 10.9121 295.803 10.5383C295.803 10.1231 295.708 9.76549 295.519 9.46557C295.33 9.16104 295.072 8.92803 294.744 8.76653C294.416 8.60043 294.045 8.51737 293.63 8.51737C293.196 8.51737 292.818 8.60504 292.495 8.78038C292.172 8.95571 291.922 9.20718 291.747 9.53478C291.572 9.86238 291.484 10.2523 291.484 10.7045H288.64C288.64 9.77702 288.849 8.97186 289.269 8.28898C289.689 7.60609 290.278 7.07778 291.034 6.70403C291.791 6.33029 292.663 6.14342 293.65 6.14342C294.666 6.14342 295.549 6.32337 296.301 6.68327C297.058 7.03856 297.646 7.53226 298.066 8.1644C298.486 8.79653 298.696 9.52094 298.696 10.3376C298.696 10.8729 298.59 11.4012 298.378 11.9226C298.17 12.444 297.798 13.023 297.263 13.6598C296.728 14.2919 295.974 15.0509 295 15.9368L292.931 17.9647V18.0616H298.883V20.5117H288.778ZM306.342 20.7055C305.276 20.7055 304.328 20.5325 303.497 20.1864C302.672 19.8358 302.023 19.3582 301.553 18.7537C301.082 18.1493 300.847 17.4641 300.847 16.6982C300.847 16.1076 300.98 15.5654 301.248 15.0717C301.52 14.5734 301.889 14.1604 302.355 13.8328C302.822 13.5006 303.343 13.2884 303.92 13.1961V13.0992C303.163 12.9469 302.549 12.5801 302.079 11.9987C301.608 11.4127 301.373 10.7321 301.373 9.95697C301.373 9.22333 301.587 8.57044 302.016 7.99829C302.445 7.42153 303.034 6.96934 303.781 6.64174C304.533 6.30953 305.387 6.14342 306.342 6.14342C307.297 6.14342 308.148 6.30953 308.896 6.64174C309.648 6.97396 310.239 7.42845 310.668 8.00521C311.097 8.57736 311.314 9.22795 311.318 9.95697C311.314 10.7368 311.074 11.4173 310.599 11.9987C310.123 12.5801 309.514 12.9469 308.771 13.0992V13.1961C309.339 13.2884 309.853 13.5006 310.315 13.8328C310.781 14.1604 311.15 14.5734 311.422 15.0717C311.699 15.5654 311.84 16.1076 311.844 16.6982C311.84 17.4641 311.602 18.1493 311.132 18.7537C310.661 19.3582 310.01 19.8358 309.18 20.1864C308.354 20.5325 307.408 20.7055 306.342 20.7055ZM306.342 18.5046C306.817 18.5046 307.233 18.4192 307.588 18.2485C307.943 18.0732 308.22 17.8332 308.418 17.5287C308.621 17.2196 308.723 16.8643 308.723 16.4628C308.723 16.0522 308.619 15.69 308.411 15.3762C308.204 15.0579 307.922 14.8087 307.567 14.6287C307.212 14.4442 306.803 14.3519 306.342 14.3519C305.885 14.3519 305.477 14.4442 305.117 14.6287C304.757 14.8087 304.473 15.0579 304.266 15.3762C304.063 15.69 303.961 16.0522 303.961 16.4628C303.961 16.8643 304.06 17.2196 304.259 17.5287C304.457 17.8332 304.736 18.0732 305.096 18.2485C305.456 18.4192 305.871 18.5046 306.342 18.5046ZM306.342 12.1717C306.739 12.1717 307.092 12.091 307.401 11.9295C307.71 11.768 307.952 11.5442 308.128 11.2581C308.303 10.9721 308.391 10.6422 308.391 10.2684C308.391 9.8993 308.303 9.57631 308.128 9.29946C307.952 9.018 307.712 8.79883 307.408 8.64196C307.103 8.48046 306.748 8.39971 306.342 8.39971C305.941 8.39971 305.585 8.48046 305.276 8.64196C304.967 8.79883 304.725 9.018 304.549 9.29946C304.379 9.57631 304.293 9.8993 304.293 10.2684C304.293 10.6422 304.381 10.9721 304.556 11.2581C304.732 11.5442 304.974 11.768 305.283 11.9295C305.592 12.091 305.945 12.1717 306.342 12.1717Z" fill="#4D4D4D"/>
<path d="M251.351 32.9432H250.371C250.313 32.661 250.211 32.4132 250.066 32.1996C249.924 31.9861 249.75 31.8068 249.544 31.6618C249.341 31.5141 249.115 31.4034 248.868 31.3295C248.62 31.2557 248.361 31.2188 248.092 31.2188C247.602 31.2188 247.158 31.3427 246.76 31.5906C246.364 31.8384 246.049 32.2036 245.814 32.6861C245.582 33.1686 245.466 33.7605 245.466 34.4619C245.466 35.1632 245.582 35.7551 245.814 36.2376C246.049 36.7201 246.364 37.0853 246.76 37.3331C247.158 37.581 247.602 37.7049 248.092 37.7049C248.361 37.7049 248.62 37.668 248.868 37.5942C249.115 37.5203 249.341 37.4109 249.544 37.2659C249.75 37.1183 249.924 36.9377 250.066 36.7241C250.211 36.5079 250.313 36.26 250.371 35.9806H251.351C251.278 36.3945 251.143 36.765 250.948 37.0919C250.753 37.4188 250.51 37.697 250.22 37.9264C249.93 38.1531 249.605 38.3258 249.243 38.4445C248.885 38.5631 248.501 38.6225 248.092 38.6225C247.402 38.6225 246.787 38.4537 246.249 38.1162C245.712 37.7787 245.288 37.2989 244.98 36.6766C244.671 36.0544 244.517 35.3161 244.517 34.4619C244.517 33.6076 244.671 32.8693 244.98 32.2471C245.288 31.6248 245.712 31.145 246.249 30.8075C246.787 30.47 247.402 30.3013 248.092 30.3013C248.501 30.3013 248.885 30.3606 249.243 30.4792C249.605 30.5979 249.93 30.7719 250.22 31.0013C250.51 31.228 250.753 31.5049 250.948 31.8318C251.143 32.1561 251.278 32.5266 251.351 32.9432ZM253.743 30.412V38.5117H252.81V30.412H253.743ZM259.281 36.028V32.4369H260.214V38.5117H259.281V37.4834H259.218C259.075 37.7919 258.854 38.0543 258.553 38.2705C258.253 38.484 257.873 38.5908 257.414 38.5908C257.035 38.5908 256.697 38.5078 256.402 38.3417C256.107 38.1729 255.874 37.9198 255.706 37.5823C255.537 37.2422 255.453 36.8137 255.453 36.297V32.4369H256.386V36.2337C256.386 36.6766 256.51 37.0299 256.758 37.2936C257.008 37.5573 257.327 37.6891 257.715 37.6891C257.947 37.6891 258.183 37.6298 258.423 37.5111C258.665 37.3925 258.868 37.2105 259.032 36.9653C259.198 36.7201 259.281 36.4077 259.281 36.028ZM262.05 38.5117V30.412H262.984V33.4019H263.063C263.131 33.2965 263.226 33.162 263.348 32.9985C263.472 32.8324 263.648 32.6848 263.878 32.5556C264.11 32.4237 264.423 32.3578 264.819 32.3578C265.33 32.3578 265.781 32.4857 266.172 32.7415C266.562 32.9972 266.866 33.3597 267.085 33.8291C267.304 34.2984 267.413 34.8521 267.413 35.4901C267.413 36.1335 267.304 36.6911 267.085 37.1631C266.866 37.6324 266.563 37.9963 266.175 38.2546C265.788 38.5104 265.341 38.6383 264.835 38.6383C264.445 38.6383 264.132 38.5737 263.897 38.4445C263.663 38.3127 263.482 38.1637 263.356 37.9976C263.229 37.8288 263.131 37.6891 263.063 37.5784H262.952V38.5117H262.05ZM262.968 35.4743C262.968 35.9331 263.035 36.3378 263.17 36.6885C263.304 37.0365 263.501 37.3094 263.759 37.5072C264.017 37.7023 264.334 37.7998 264.708 37.7998C265.098 37.7998 265.424 37.697 265.685 37.4913C265.949 37.2831 266.146 37.0036 266.278 36.6529C266.413 36.2996 266.48 35.9067 266.48 35.4743C266.48 35.0472 266.414 34.6622 266.282 34.3195C266.153 33.9741 265.957 33.7012 265.693 33.5008C265.432 33.2978 265.104 33.1963 264.708 33.1963C264.328 33.1963 264.009 33.2925 263.751 33.485C263.493 33.6748 263.298 33.9411 263.166 34.2839C263.034 34.624 262.968 35.0208 262.968 35.4743ZM273.144 33.7974L272.306 34.0347C272.253 33.895 272.175 33.7592 272.072 33.6274C271.972 33.4929 271.835 33.3822 271.661 33.2952C271.487 33.2081 271.264 33.1646 270.993 33.1646C270.621 33.1646 270.311 33.2503 270.063 33.4217C269.818 33.5905 269.695 33.8053 269.695 34.0664C269.695 34.2984 269.78 34.4816 269.948 34.6161C270.117 34.7506 270.381 34.8626 270.739 34.9523L271.641 35.1737C272.184 35.3056 272.589 35.5073 272.855 35.7789C273.122 36.0478 273.255 36.3945 273.255 36.819C273.255 37.167 273.155 37.4782 272.954 37.7524C272.756 38.0266 272.48 38.2428 272.124 38.401C271.768 38.5592 271.354 38.6383 270.882 38.6383C270.262 38.6383 269.749 38.5038 269.343 38.2349C268.937 37.9659 268.68 37.5731 268.572 37.0563L269.458 36.8348C269.542 37.1618 269.702 37.407 269.937 37.5704C270.174 37.7339 270.484 37.8156 270.866 37.8156C271.301 37.8156 271.646 37.7234 271.902 37.5388C272.161 37.3516 272.29 37.1275 272.29 36.8665C272.29 36.6555 272.216 36.4789 272.068 36.3365C271.921 36.1915 271.694 36.0834 271.388 36.0122L270.376 35.7749C269.819 35.6431 269.411 35.4387 269.15 35.1619C268.891 34.8824 268.762 34.533 268.762 34.1138C268.762 33.7711 268.858 33.4679 269.051 33.2042C269.246 32.9405 269.511 32.7336 269.846 32.5833C270.183 32.433 270.565 32.3578 270.993 32.3578C271.594 32.3578 272.066 32.4897 272.408 32.7533C272.754 33.017 272.999 33.365 273.144 33.7974Z" fill="#717171"/>
</g>
</g>
<g clip-path="url(#clip5_211_2329)">
<path d="M28.7674 105.384V102.6C28.7674 101.123 28.1807 99.7064 27.1364 98.6621C26.0921 97.6178 24.6757 97.0311 23.1988 97.0311H21.8067C21.4374 97.0311 21.0833 96.8844 20.8223 96.6234C20.5612 96.3623 20.4145 96.0082 20.4145 95.639V88.6783C20.4145 87.9398 20.1212 87.2316 19.599 86.7095C19.0769 86.1873 18.3687 85.894 17.6302 85.894C16.8918 85.894 16.1836 86.1873 15.6615 86.7095C15.1393 87.2316 14.846 87.9398 14.846 88.6783V101.208L11.5048 96.7527C11.2455 96.4069 10.9092 96.1262 10.5226 95.9329C10.136 95.7396 9.70966 95.639 9.27741 95.639H8.67322C7.46902 95.639 6.49313 96.6149 6.49313 97.8191C6.49313 98.2144 6.60033 98.6028 6.80358 98.9411L10.6696 105.384M17.6302 81.7176V80.3254V81.7176ZM25.9831 90.0704H27.3752H25.9831ZM7.88527 90.0704H9.27741H7.88527ZM11.1471 83.5872L10.1628 82.603L11.1471 83.5872ZM24.1134 83.5872L25.0977 82.603L24.1134 83.5872Z" fill="#4CAF4F"/>
<path d="M28.7674 105.384V102.6C28.7674 101.123 28.1807 99.7064 27.1364 98.6621C26.0921 97.6178 24.6757 97.0311 23.1988 97.0311H21.8067C21.4374 97.0311 21.0833 96.8844 20.8223 96.6234C20.5612 96.3623 20.4145 96.0082 20.4145 95.639V88.6783C20.4145 87.9398 20.1212 87.2316 19.599 86.7095C19.0769 86.1873 18.3687 85.894 17.6302 85.894V85.894C16.8918 85.894 16.1836 86.1873 15.6615 86.7095C15.1393 87.2316 14.846 87.9398 14.846 88.6783V101.208L11.5048 96.7527C11.2455 96.4069 10.9092 96.1262 10.5226 95.9329C10.136 95.7396 9.70966 95.639 9.27741 95.639H8.67322C7.46902 95.639 6.49313 96.6149 6.49313 97.8191C6.49313 98.2144 6.60033 98.6028 6.80358 98.9411L10.6696 105.384M17.6302 81.7176V80.3254M25.9831 90.0704H27.3752M7.88527 90.0704H9.27741M11.1471 83.5872L10.1628 82.603M24.1134 83.5872L25.0977 82.603" stroke="#4CAF4F" stroke-width="1.39214" stroke-linecap="round" stroke-linejoin="round"/>
<g clip-path="url(#clip6_211_2329)">
<path d="M51.9097 91.5483C50.8438 91.5483 49.8956 91.3753 49.0651 91.0292C48.2392 90.6785 47.5909 90.201 47.1203 89.5965C46.6496 88.9921 46.4143 88.3069 46.4143 87.5409C46.4143 86.9503 46.5481 86.4082 46.8157 85.9145C47.088 85.4161 47.4571 85.0032 47.9231 84.6756C48.3891 84.3434 48.9105 84.1311 49.4873 84.0388V83.9419C48.7306 83.7897 48.1169 83.4229 47.6463 82.8415C47.1756 82.2555 46.9403 81.5749 46.9403 80.7997C46.9403 80.0661 47.1549 79.4132 47.584 78.8411C48.0131 78.2643 48.6014 77.8121 49.3489 77.4845C50.101 77.1523 50.9546 76.9862 51.9097 76.9862C52.8648 76.9862 53.7161 77.1523 54.4636 77.4845C55.2157 77.8167 55.8063 78.2712 56.2354 78.848C56.6645 79.4201 56.8814 80.0707 56.886 80.7997C56.8814 81.5795 56.6414 82.2601 56.1662 82.8415C55.6909 83.4229 55.0819 83.7897 54.339 83.9419V84.0388C54.9065 84.1311 55.421 84.3434 55.8824 84.6756C56.3484 85.0032 56.7176 85.4161 56.9898 85.9145C57.2667 86.4082 57.4074 86.9503 57.412 87.5409C57.4074 88.3069 57.1698 88.9921 56.6991 89.5965C56.2285 90.201 55.5779 90.6785 54.7474 91.0292C53.9214 91.3753 52.9755 91.5483 51.9097 91.5483ZM51.9097 89.3474C52.3849 89.3474 52.8002 89.262 53.1555 89.0913C53.5108 88.9159 53.7876 88.676 53.986 88.3715C54.1891 88.0623 54.2906 87.707 54.2906 87.3056C54.2906 86.895 54.1867 86.5328 53.9791 86.219C53.7715 85.9006 53.49 85.6515 53.1347 85.4715C52.7794 85.287 52.3711 85.1947 51.9097 85.1947C51.4529 85.1947 51.0445 85.287 50.6846 85.4715C50.3247 85.6515 50.041 85.9006 49.8333 86.219C49.6303 86.5328 49.5288 86.895 49.5288 87.3056C49.5288 87.707 49.628 88.0623 49.8264 88.3715C50.0248 88.676 50.304 88.9159 50.6639 89.0913C51.0238 89.262 51.439 89.3474 51.9097 89.3474ZM51.9097 83.0145C52.3065 83.0145 52.6595 82.9338 52.9686 82.7723C53.2778 82.6108 53.52 82.387 53.6953 82.1009C53.8707 81.8148 53.9583 81.4849 53.9583 81.1112C53.9583 80.7421 53.8707 80.4191 53.6953 80.1422C53.52 79.8608 53.2801 79.6416 52.9755 79.4847C52.671 79.3232 52.3157 79.2425 51.9097 79.2425C51.5083 79.2425 51.153 79.3232 50.8438 79.4847C50.5347 79.6416 50.2924 79.8608 50.1171 80.1422C49.9464 80.4191 49.861 80.7421 49.861 81.1112C49.861 81.4849 49.9487 81.8148 50.124 82.1009C50.2994 82.387 50.5416 82.6108 50.8508 82.7723C51.1599 82.9338 51.5129 83.0145 51.9097 83.0145ZM59.5074 91.3545V89.1951L64.5529 84.5233C64.982 84.1081 65.3419 83.7343 65.6326 83.4021C65.9279 83.0699 66.1517 82.7446 66.3039 82.4262C66.4562 82.1032 66.5323 81.7549 66.5323 81.3811C66.5323 80.9659 66.4377 80.6083 66.2486 80.3083C66.0594 80.0038 65.801 79.7708 65.4734 79.6093C65.1458 79.4432 64.7744 79.3601 64.3591 79.3601C63.9254 79.3601 63.547 79.4478 63.224 79.6232C62.901 79.7985 62.6519 80.05 62.4765 80.3776C62.3012 80.7052 62.2135 81.095 62.2135 81.5472H59.369C59.369 80.6198 59.5789 79.8146 59.9988 79.1317C60.4187 78.4489 61.007 77.9205 61.7637 77.5468C62.5204 77.1731 63.3924 76.9862 64.3799 76.9862C65.395 76.9862 66.2786 77.1661 67.0307 77.526C67.7874 77.8813 68.3757 78.375 68.7956 79.0072C69.2154 79.6393 69.4254 80.3637 69.4254 81.1804C69.4254 81.7156 69.3193 82.244 69.107 82.7654C68.8994 83.2867 68.5279 83.8658 67.9927 84.5026C67.4575 85.1347 66.7031 85.8937 65.7295 86.7796L63.6601 88.8075V88.9044H69.6122V91.3545H59.5074ZM77.0715 91.5483C76.0057 91.5483 75.0575 91.3753 74.2269 91.0292C73.401 90.6785 72.7527 90.201 72.2821 89.5965C71.8114 88.9921 71.5761 88.3069 71.5761 87.5409C71.5761 86.9503 71.7099 86.4082 71.9775 85.9145C72.2498 85.4161 72.6189 85.0032 73.0849 84.6756C73.551 84.3434 74.0723 84.1311 74.6491 84.0388V83.9419C73.8924 83.7897 73.2787 83.4229 72.8081 82.8415C72.3374 82.2555 72.1021 81.5749 72.1021 80.7997C72.1021 80.0661 72.3167 79.4132 72.7458 78.8411C73.1749 78.2643 73.7632 77.8121 74.5107 77.4845C75.2628 77.1523 76.1164 76.9862 77.0715 76.9862C78.0266 76.9862 78.8779 77.1523 79.6254 77.4845C80.3775 77.8167 80.9681 78.2712 81.3972 78.848C81.8263 79.4201 82.0432 80.0707 82.0478 80.7997C82.0432 81.5795 81.8033 82.2601 81.328 82.8415C80.8528 83.4229 80.2437 83.7897 79.5008 83.9419V84.0388C80.0684 84.1311 80.5828 84.3434 81.0442 84.6756C81.5103 85.0032 81.8794 85.4161 82.1516 85.9145C82.4285 86.4082 82.5692 86.9503 82.5738 87.5409C82.5692 88.3069 82.3316 88.9921 81.8609 89.5965C81.3903 90.201 80.7397 90.6785 79.9092 91.0292C79.0833 91.3753 78.1374 91.5483 77.0715 91.5483ZM77.0715 89.3474C77.5468 89.3474 77.962 89.262 78.3173 89.0913C78.6726 88.9159 78.9494 88.676 79.1479 88.3715C79.3509 88.0623 79.4524 87.707 79.4524 87.3056C79.4524 86.895 79.3486 86.5328 79.1409 86.219C78.9333 85.9006 78.6518 85.6515 78.2966 85.4715C77.9413 85.287 77.5329 85.1947 77.0715 85.1947C76.6147 85.1947 76.2064 85.287 75.8465 85.4715C75.4866 85.6515 75.2028 85.9006 74.9952 86.219C74.7921 86.5328 74.6906 86.895 74.6906 87.3056C74.6906 87.707 74.7898 88.0623 74.9882 88.3715C75.1867 88.676 75.4658 88.9159 75.8257 89.0913C76.1856 89.262 76.6009 89.3474 77.0715 89.3474ZM77.0715 83.0145C77.4683 83.0145 77.8213 82.9338 78.1304 82.7723C78.4396 82.6108 78.6818 82.387 78.8572 82.1009C79.0325 81.8148 79.1202 81.4849 79.1202 81.1112C79.1202 80.7421 79.0325 80.4191 78.8572 80.1422C78.6818 79.8608 78.4419 79.6416 78.1374 79.4847C77.8328 79.3232 77.4776 79.2425 77.0715 79.2425C76.6701 79.2425 76.3148 79.3232 76.0057 79.4847C75.6965 79.6416 75.4543 79.8608 75.2789 80.1422C75.1082 80.4191 75.0229 80.7421 75.0229 81.1112C75.0229 81.4849 75.1105 81.8148 75.2859 82.1009C75.4612 82.387 75.7034 82.6108 76.0126 82.7723C76.3217 82.9338 76.6747 83.0145 77.0715 83.0145ZM87.5017 89.4166L87.4255 90.1779C87.3656 90.787 87.2502 91.3937 87.0795 91.9982C86.9134 92.6072 86.738 93.1586 86.5535 93.6523C86.3735 94.146 86.2282 94.5336 86.1174 94.8151H84.2072C84.2764 94.5428 84.371 94.1622 84.491 93.6731C84.6109 93.1886 84.724 92.6441 84.8301 92.0397C84.9362 91.4352 85.0031 90.8193 85.0308 90.1917L85.0654 89.4166H87.5017ZM94.8865 91.5483C93.8207 91.5483 92.8725 91.3753 92.0419 91.0292C91.216 90.6785 90.5677 90.201 90.0971 89.5965C89.6265 88.9921 89.3912 88.3069 89.3912 87.5409C89.3912 86.9503 89.525 86.4082 89.7926 85.9145C90.0648 85.4161 90.4339 85.0032 90.9 84.6756C91.366 84.3434 91.8874 84.1311 92.4641 84.0388V83.9419C91.7074 83.7897 91.0938 83.4229 90.6231 82.8415C90.1525 82.2555 89.9172 81.5749 89.9172 80.7997C89.9172 80.0661 90.1317 79.4132 90.5608 78.8411C90.9899 78.2643 91.5782 77.8121 92.3257 77.4845C93.0778 77.1523 93.9314 76.9862 94.8865 76.9862C95.8417 76.9862 96.693 77.1523 97.4404 77.4845C98.1925 77.8167 98.7831 78.2712 99.2123 78.848C99.6414 79.4201 99.8582 80.0707 99.8628 80.7997C99.8582 81.5795 99.6183 82.2601 99.143 82.8415C98.6678 83.4229 98.0587 83.7897 97.3159 83.9419V84.0388C97.8834 84.1311 98.3979 84.3434 98.8593 84.6756C99.3253 85.0032 99.6944 85.4161 99.9667 85.9145C100.244 86.4082 100.384 86.9503 100.389 87.5409C100.384 88.3069 100.147 88.9921 99.676 89.5965C99.2053 90.201 98.5547 90.6785 97.7242 91.0292C96.8983 91.3753 95.9524 91.5483 94.8865 91.5483ZM94.8865 89.3474C95.3618 89.3474 95.7771 89.262 96.1323 89.0913C96.4876 88.9159 96.7645 88.676 96.9629 88.3715C97.1659 88.0623 97.2674 87.707 97.2674 87.3056C97.2674 86.895 97.1636 86.5328 96.956 86.219C96.7483 85.9006 96.4669 85.6515 96.1116 85.4715C95.7563 85.287 95.3479 85.1947 94.8865 85.1947C94.4297 85.1947 94.0214 85.287 93.6615 85.4715C93.3016 85.6515 93.0178 85.9006 92.8102 86.219C92.6072 86.5328 92.5057 86.895 92.5057 87.3056C92.5057 87.707 92.6049 88.0623 92.8033 88.3715C93.0017 88.676 93.2808 88.9159 93.6407 89.0913C94.0006 89.262 94.4159 89.3474 94.8865 89.3474ZM94.8865 83.0145C95.2834 83.0145 95.6363 82.9338 95.9455 82.7723C96.2546 82.6108 96.4969 82.387 96.6722 82.1009C96.8475 81.8148 96.9352 81.4849 96.9352 81.1112C96.9352 80.7421 96.8475 80.4191 96.6722 80.1422C96.4969 79.8608 96.2569 79.6416 95.9524 79.4847C95.6479 79.3232 95.2926 79.2425 94.8865 79.2425C94.4851 79.2425 94.1298 79.3232 93.8207 79.4847C93.5115 79.6416 93.2693 79.8608 93.094 80.1422C92.9232 80.4191 92.8379 80.7421 92.8379 81.1112C92.8379 81.4849 92.9255 81.8148 93.1009 82.1009C93.2762 82.387 93.5185 82.6108 93.8276 82.7723C94.1367 82.9338 94.4897 83.0145 94.8865 83.0145ZM107.924 91.5483C107.195 91.5437 106.492 91.4214 105.813 91.1815C105.14 90.9415 104.535 90.5516 104 90.0118C103.465 89.4719 103.04 88.7568 102.726 87.8662C102.417 86.9757 102.263 85.8822 102.263 84.5856C102.267 83.3952 102.403 82.3316 102.671 81.395C102.943 80.4537 103.331 79.6554 103.834 79.0002C104.341 78.345 104.948 77.8467 105.654 77.5053C106.36 77.1592 107.151 76.9862 108.028 76.9862C108.974 76.9862 109.809 77.1708 110.534 77.5399C111.258 77.9044 111.839 78.4004 112.278 79.0279C112.721 79.6555 112.988 80.3591 113.08 81.1389H110.125C110.01 80.6452 109.768 80.2576 109.398 79.9761C109.029 79.6947 108.573 79.5539 108.028 79.5539C107.105 79.5539 106.404 79.9554 105.924 80.7582C105.449 81.5611 105.207 82.6523 105.197 84.0319H105.294C105.506 83.612 105.793 83.2544 106.152 82.9591C106.517 82.6592 106.93 82.4308 107.391 82.2739C107.857 82.1125 108.349 82.0317 108.866 82.0317C109.705 82.0317 110.453 82.2301 111.108 82.6269C111.763 83.0191 112.28 83.559 112.658 84.2465C113.037 84.934 113.226 85.7207 113.226 86.6066C113.226 87.5663 113.002 88.4199 112.554 89.1674C112.112 89.9149 111.491 90.5009 110.693 90.9254C109.899 91.3453 108.976 91.5529 107.924 91.5483ZM107.91 89.1951C108.372 89.1951 108.785 89.0844 109.149 88.8629C109.514 88.6414 109.8 88.3415 110.008 87.9631C110.215 87.5848 110.319 87.1603 110.319 86.6896C110.319 86.219 110.215 85.7968 110.008 85.4231C109.804 85.0493 109.523 84.7517 109.163 84.5302C108.803 84.3088 108.393 84.198 107.931 84.198C107.585 84.198 107.264 84.2626 106.969 84.3918C106.678 84.521 106.422 84.701 106.201 84.9317C105.984 85.1624 105.813 85.43 105.689 85.7345C105.564 86.0344 105.502 86.3551 105.502 86.6966C105.502 87.1534 105.606 87.5709 105.813 87.9493C106.026 88.3276 106.312 88.6299 106.672 88.856C107.036 89.082 107.449 89.1951 107.91 89.1951ZM115.911 91.3545L121.787 79.727V79.6301H114.942V77.18H124.888V79.6647L119.005 91.3545H115.911Z" fill="#4D4D4D"/>
<path d="M46.4538 109.354V101.255H51.3422V102.125H47.4347V104.862H51.089V105.732H47.4347V108.484H51.4054V109.354H46.4538ZM57.9509 103.28L55.7045 109.354H54.7553L52.5089 103.28H53.5213L55.1982 108.121H55.2615L56.9384 103.28H57.9509ZM61.5123 109.481C60.927 109.481 60.422 109.352 59.9975 109.093C59.5757 108.832 59.2501 108.469 59.0207 108.002C58.7939 107.533 58.6805 106.987 58.6805 106.365C58.6805 105.742 58.7939 105.194 59.0207 104.719C59.2501 104.242 59.5691 103.87 59.9778 103.604C60.3891 103.335 60.8689 103.201 61.4174 103.201C61.7338 103.201 62.0462 103.253 62.3547 103.359C62.6632 103.464 62.944 103.636 63.1971 103.873C63.4502 104.108 63.6519 104.419 63.8022 104.806C63.9525 105.194 64.0276 105.671 64.0276 106.238V106.633H59.345V105.827H63.0784C63.0784 105.484 63.0099 105.178 62.8728 104.909C62.7383 104.64 62.5458 104.428 62.2954 104.272C62.0475 104.117 61.7549 104.039 61.4174 104.039C61.0456 104.039 60.7239 104.131 60.4524 104.316C60.1834 104.498 59.9764 104.735 59.8314 105.028C59.6864 105.32 59.6139 105.634 59.6139 105.969V106.507C59.6139 106.966 59.693 107.355 59.8512 107.674C60.012 107.99 60.2348 108.231 60.5196 108.397C60.8043 108.561 61.1352 108.643 61.5123 108.643C61.7575 108.643 61.979 108.608 62.1767 108.54C62.3771 108.469 62.5498 108.363 62.6948 108.223C62.8398 108.081 62.9519 107.904 63.031 107.693L63.9327 107.947C63.8378 108.252 63.6783 108.521 63.4542 108.753C63.23 108.983 62.9532 109.162 62.6236 109.291C62.294 109.418 61.9236 109.481 61.5123 109.481ZM66.3808 105.7V109.354H65.4474V103.28H66.3492V104.229H66.4283C66.5707 103.92 66.7869 103.673 67.0769 103.485C67.3669 103.296 67.7413 103.201 68.2001 103.201C68.6114 103.201 68.9713 103.285 69.2798 103.454C69.5883 103.62 69.8282 103.873 69.9996 104.213C70.171 104.551 70.2567 104.978 70.2567 105.494V109.354H69.3233V105.558C69.3233 105.081 69.1994 104.709 68.9515 104.442C68.7037 104.174 68.3636 104.039 67.9312 104.039C67.6332 104.039 67.3669 104.104 67.1323 104.233C66.9002 104.362 66.717 104.551 66.5825 104.798C66.448 105.046 66.3808 105.347 66.3808 105.7ZM74.6041 103.28V104.071H71.456V103.28H74.6041ZM72.3735 101.824H73.3069V107.614C73.3069 107.878 73.3451 108.076 73.4216 108.208C73.5007 108.337 73.6009 108.424 73.7222 108.469C73.8461 108.511 73.9766 108.532 74.1137 108.532C74.2165 108.532 74.3009 108.527 74.3668 108.516C74.4327 108.503 74.4855 108.492 74.525 108.484L74.7149 109.323C74.6516 109.347 74.5633 109.37 74.4499 109.394C74.3365 109.42 74.1928 109.434 74.0188 109.434C73.7551 109.434 73.4967 109.377 73.2436 109.264C72.9931 109.15 72.7849 108.977 72.6187 108.745C72.4553 108.513 72.3735 108.221 72.3735 107.867V101.824ZM79.267 109.354V101.255H82.0987C82.663 101.255 83.1283 101.352 83.4948 101.547C83.8613 101.74 84.1342 102 84.3135 102.327C84.4928 102.651 84.5824 103.011 84.5824 103.406C84.5824 103.754 84.5205 104.042 84.3966 104.268C84.2753 104.495 84.1144 104.674 83.9141 104.806C83.7163 104.938 83.5014 105.036 83.2694 105.099V105.178C83.5172 105.194 83.7664 105.281 84.0169 105.439C84.2674 105.597 84.477 105.824 84.6457 106.119C84.8145 106.415 84.8988 106.776 84.8988 107.203C84.8988 107.609 84.8065 107.974 84.622 108.299C84.4374 108.623 84.1461 108.88 83.7479 109.07C83.3498 109.26 82.8317 109.354 82.1937 109.354H79.267ZM80.2478 108.484H82.1937C82.8344 108.484 83.2892 108.36 83.5581 108.113C83.8297 107.862 83.9655 107.559 83.9655 107.203C83.9655 106.929 83.8956 106.676 83.7559 106.444C83.6161 106.209 83.417 106.022 83.1587 105.882C82.9003 105.74 82.5944 105.668 82.2411 105.668H80.2478V108.484ZM80.2478 104.814H82.0671C82.3624 104.814 82.6287 104.756 82.866 104.64C83.1059 104.524 83.2958 104.361 83.4355 104.15C83.5779 103.939 83.6491 103.691 83.6491 103.406C83.6491 103.05 83.5251 102.748 83.2773 102.501C83.0295 102.25 82.6366 102.125 82.0987 102.125H80.2478V104.814ZM88.8518 109.481C88.3034 109.481 87.8222 109.351 87.4082 109.09C86.9969 108.828 86.6753 108.463 86.4432 107.994C86.2139 107.525 86.0992 106.976 86.0992 106.349C86.0992 105.716 86.2139 105.164 86.4432 104.692C86.6753 104.22 86.9969 103.853 87.4082 103.592C87.8222 103.331 88.3034 103.201 88.8518 103.201C89.4002 103.201 89.8801 103.331 90.2914 103.592C90.7053 103.853 91.027 104.22 91.2564 104.692C91.4884 105.164 91.6044 105.716 91.6044 106.349C91.6044 106.976 91.4884 107.525 91.2564 107.994C91.027 108.463 90.7053 108.828 90.2914 109.09C89.8801 109.351 89.4002 109.481 88.8518 109.481ZM88.8518 108.643C89.2684 108.643 89.6111 108.536 89.8801 108.322C90.149 108.109 90.3481 107.828 90.4773 107.48C90.6065 107.132 90.6711 106.755 90.6711 106.349C90.6711 105.943 90.6065 105.564 90.4773 105.214C90.3481 104.863 90.149 104.58 89.8801 104.363C89.6111 104.147 89.2684 104.039 88.8518 104.039C88.4352 104.039 88.0924 104.147 87.8235 104.363C87.5546 104.58 87.3555 104.863 87.2263 105.214C87.0971 105.564 87.0325 105.943 87.0325 106.349C87.0325 106.755 87.0971 107.132 87.2263 107.48C87.3555 107.828 87.5546 108.109 87.8235 108.322C88.0924 108.536 88.4352 108.643 88.8518 108.643ZM95.4971 109.481C94.9487 109.481 94.4675 109.351 94.0535 109.09C93.6422 108.828 93.3205 108.463 93.0885 107.994C92.8591 107.525 92.7444 106.976 92.7444 106.349C92.7444 105.716 92.8591 105.164 93.0885 104.692C93.3205 104.22 93.6422 103.853 94.0535 103.592C94.4675 103.331 94.9487 103.201 95.4971 103.201C96.0455 103.201 96.5254 103.331 96.9367 103.592C97.3506 103.853 97.6723 104.22 97.9017 104.692C98.1337 105.164 98.2497 105.716 98.2497 106.349C98.2497 106.976 98.1337 107.525 97.9017 107.994C97.6723 108.463 97.3506 108.828 96.9367 109.09C96.5254 109.351 96.0455 109.481 95.4971 109.481ZM95.4971 108.643C95.9137 108.643 96.2564 108.536 96.5254 108.322C96.7943 108.109 96.9934 107.828 97.1226 107.48C97.2518 107.132 97.3164 106.755 97.3164 106.349C97.3164 105.943 97.2518 105.564 97.1226 105.214C96.9934 104.863 96.7943 104.58 96.5254 104.363C96.2564 104.147 95.9137 104.039 95.4971 104.039C95.0805 104.039 94.7377 104.147 94.4688 104.363C94.1999 104.58 94.0008 104.863 93.8716 105.214C93.7424 105.564 93.6778 105.943 93.6778 106.349C93.6778 106.755 93.7424 107.132 93.8716 107.48C94.0008 107.828 94.1999 108.109 94.4688 108.322C94.7377 108.536 95.0805 108.643 95.4971 108.643ZM100.545 107.14L100.529 105.985H100.719L103.376 103.28H104.531L101.699 106.143H101.62L100.545 107.14ZM99.6745 109.354V101.255H100.608V109.354H99.6745ZM103.535 109.354L101.162 106.349L101.826 105.7L104.721 109.354H103.535ZM105.732 109.354V103.28H106.666V109.354H105.732ZM106.207 102.267C106.025 102.267 105.868 102.205 105.736 102.081C105.607 101.957 105.543 101.808 105.543 101.634C105.543 101.46 105.607 101.311 105.736 101.188C105.868 101.064 106.025 101.002 106.207 101.002C106.389 101.002 106.545 101.064 106.674 101.188C106.806 101.311 106.871 101.46 106.871 101.634C106.871 101.808 106.806 101.957 106.674 102.081C106.545 102.205 106.389 102.267 106.207 102.267ZM109.309 105.7V109.354H108.375V103.28H109.277V104.229H109.356C109.499 103.92 109.715 103.673 110.005 103.485C110.295 103.296 110.669 103.201 111.128 103.201C111.539 103.201 111.899 103.285 112.208 103.454C112.516 103.62 112.756 103.873 112.927 104.213C113.099 104.551 113.185 104.978 113.185 105.494V109.354H112.251V105.558C112.251 105.081 112.127 104.709 111.879 104.442C111.632 104.174 111.291 104.039 110.859 104.039C110.561 104.039 110.295 104.104 110.06 104.233C109.828 104.362 109.645 104.551 109.51 104.798C109.376 105.046 109.309 105.347 109.309 105.7ZM117.342 111.759C116.891 111.759 116.504 111.701 116.179 111.585C115.855 111.472 115.585 111.321 115.369 111.134C115.155 110.95 114.985 110.752 114.858 110.541L115.602 110.019C115.686 110.13 115.793 110.256 115.922 110.399C116.052 110.544 116.228 110.669 116.452 110.774C116.679 110.882 116.976 110.936 117.342 110.936C117.833 110.936 118.237 110.818 118.556 110.581C118.875 110.343 119.035 109.971 119.035 109.465V108.231H118.956C118.887 108.342 118.79 108.479 118.663 108.643C118.539 108.803 118.36 108.947 118.125 109.074C117.893 109.198 117.579 109.26 117.184 109.26C116.694 109.26 116.253 109.144 115.863 108.912C115.475 108.68 115.168 108.342 114.942 107.899C114.717 107.456 114.605 106.918 114.605 106.285C114.605 105.663 114.715 105.121 114.934 104.66C115.152 104.196 115.457 103.837 115.847 103.584C116.237 103.328 116.688 103.201 117.2 103.201C117.595 103.201 117.909 103.267 118.141 103.398C118.376 103.528 118.555 103.675 118.679 103.841C118.806 104.005 118.903 104.139 118.972 104.245H119.067V103.28H119.968V109.529C119.968 110.051 119.85 110.475 119.612 110.802C119.378 111.132 119.061 111.373 118.663 111.526C118.268 111.681 117.827 111.759 117.342 111.759ZM117.311 108.421C117.685 108.421 118.001 108.335 118.26 108.164C118.518 107.993 118.715 107.746 118.849 107.424C118.983 107.103 119.051 106.718 119.051 106.27C119.051 105.832 118.985 105.446 118.853 105.111C118.721 104.776 118.526 104.514 118.268 104.324C118.009 104.134 117.69 104.039 117.311 104.039C116.915 104.039 116.585 104.139 116.322 104.34C116.061 104.54 115.864 104.809 115.733 105.146C115.603 105.484 115.539 105.858 115.539 106.27C115.539 106.691 115.605 107.065 115.736 107.389C115.871 107.711 116.069 107.964 116.33 108.148C116.593 108.33 116.92 108.421 117.311 108.421ZM125.98 104.64L125.141 104.877C125.089 104.738 125.011 104.602 124.908 104.47C124.808 104.336 124.671 104.225 124.497 104.138C124.323 104.051 124.1 104.007 123.828 104.007C123.457 104.007 123.147 104.093 122.899 104.264C122.654 104.433 122.531 104.648 122.531 104.909C122.531 105.141 122.615 105.324 122.784 105.459C122.953 105.593 123.217 105.705 123.575 105.795L124.477 106.017C125.02 106.148 125.425 106.35 125.691 106.622C125.957 106.891 126.091 107.237 126.091 107.662C126.091 108.01 125.99 108.321 125.79 108.595C125.592 108.869 125.315 109.086 124.959 109.244C124.603 109.402 124.19 109.481 123.718 109.481C123.098 109.481 122.585 109.347 122.179 109.078C121.773 108.809 121.516 108.416 121.408 107.899L122.294 107.678C122.378 108.005 122.538 108.25 122.772 108.413C123.01 108.577 123.319 108.658 123.702 108.658C124.137 108.658 124.482 108.566 124.738 108.382C124.996 108.194 125.126 107.97 125.126 107.709C125.126 107.498 125.052 107.322 124.904 107.179C124.756 107.034 124.53 106.926 124.224 106.855L123.211 106.618C122.655 106.486 122.246 106.282 121.985 106.005C121.727 105.725 121.598 105.376 121.598 104.957C121.598 104.614 121.694 104.311 121.886 104.047C122.082 103.783 122.347 103.576 122.681 103.426C123.019 103.276 123.401 103.201 123.828 103.201C124.429 103.201 124.901 103.332 125.244 103.596C125.59 103.86 125.835 104.208 125.98 104.64Z" fill="#717171"/>
</g>
<path d="M203.133 87.634V87.982H203.481H228.539H228.887V87.634V86.0679C228.887 85.2833 228.576 84.5308 228.021 83.976C227.466 83.4212 226.714 83.1096 225.929 83.1096H206.091C205.306 83.1096 204.554 83.4212 203.999 83.976C203.444 84.5308 203.133 85.2833 203.133 86.0679V87.634ZM228.887 89.7222V89.3742H228.539H203.481H203.133V89.7222V99.6412C203.133 100.426 203.444 101.178 203.999 101.733C204.554 102.288 205.306 102.6 206.091 102.6H225.929C226.714 102.6 227.466 102.288 228.021 101.733C228.576 101.178 228.887 100.426 228.887 99.6412V89.7222ZM201.741 86.0679C201.741 84.914 202.199 83.8075 203.015 82.9916C203.831 82.1758 204.937 81.7174 206.091 81.7174H225.929C227.083 81.7174 228.189 82.1758 229.005 82.9916C229.821 83.8075 230.279 84.914 230.279 86.0679V99.6412C230.279 100.795 229.821 101.902 229.005 102.717C228.189 103.533 227.083 103.992 225.929 103.992H206.091C204.937 103.992 203.831 103.533 203.015 102.717C202.199 101.902 201.741 100.795 201.741 99.6412V86.0679ZM221.231 96.3349H224.363C224.547 96.3349 224.724 96.4082 224.855 96.5388C224.986 96.6693 225.059 96.8463 225.059 97.0309C225.059 97.2156 224.986 97.3926 224.855 97.5231C224.724 97.6537 224.547 97.727 224.363 97.727H221.231C221.046 97.727 220.869 97.6537 220.738 97.5231C220.608 97.3926 220.534 97.2156 220.534 97.0309C220.534 96.8463 220.608 96.6693 220.738 96.5388C220.869 96.4082 221.046 96.3349 221.231 96.3349Z" fill="#4CAF4F" stroke="#4CAF4F" stroke-width="0.696069"/>
<g clip-path="url(#clip7_211_2329)">
<path d="M251.168 77.18V91.3545H248.172V80.0246H248.089L244.843 82.0594V79.4017L248.352 77.18H251.168ZM257.008 89.4166L256.932 90.1779C256.872 90.787 256.757 91.3937 256.586 91.9982C256.42 92.6072 256.245 93.1586 256.06 93.6523C255.88 94.146 255.735 94.5336 255.624 94.8151H253.714C253.783 94.5428 253.877 94.1622 253.997 93.6731C254.117 93.1886 254.23 92.6441 254.337 92.0397C254.443 91.4352 254.51 90.8193 254.537 90.1917L254.572 89.4166H257.008ZM264.538 76.9862C265.267 76.9862 265.969 77.1085 266.642 77.353C267.321 77.5976 267.925 77.9875 268.456 78.5227C268.991 79.0579 269.413 79.7685 269.722 80.6544C270.036 81.5357 270.195 82.6177 270.2 83.9004C270.2 85.1047 270.064 86.1798 269.792 87.1257C269.524 88.0669 269.139 88.8675 268.636 89.5273C268.133 90.1871 267.526 90.6901 266.815 91.0361C266.105 91.3776 265.311 91.5483 264.435 91.5483C263.489 91.5483 262.653 91.366 261.929 91.0015C261.205 90.6324 260.621 90.1318 260.178 89.4996C259.74 88.8629 259.474 88.1477 259.382 87.3541H262.337C262.453 87.8708 262.695 88.2723 263.064 88.5583C263.433 88.8398 263.89 88.9805 264.435 88.9805C265.357 88.9805 266.059 88.5791 266.539 87.7763C267.018 86.9688 267.261 85.8637 267.265 84.461H267.168C266.956 84.8763 266.67 85.2339 266.31 85.5338C265.95 85.8291 265.537 86.0575 265.071 86.219C264.61 86.3805 264.118 86.4612 263.597 86.4612C262.762 86.4612 262.017 86.2651 261.362 85.8729C260.706 85.4807 260.19 84.9409 259.811 84.2534C259.433 83.5659 259.244 82.7815 259.244 81.9002C259.239 80.9497 259.458 80.103 259.901 79.3601C260.344 78.6173 260.962 78.0359 261.756 77.616C262.554 77.1915 263.482 76.9816 264.538 76.9862ZM264.559 79.3394C264.093 79.3394 263.678 79.4501 263.313 79.6716C262.953 79.8931 262.667 80.1907 262.455 80.5644C262.247 80.9382 262.146 81.3557 262.151 81.8172C262.151 82.2832 262.252 82.7031 262.455 83.0768C262.663 83.4459 262.944 83.7412 263.299 83.9627C263.659 84.1796 264.07 84.288 264.531 84.288C264.877 84.288 265.198 84.2234 265.493 84.0942C265.789 83.965 266.045 83.7874 266.262 83.5613C266.483 83.3306 266.656 83.0653 266.781 82.7654C266.905 82.4654 266.968 82.1471 266.968 81.8102C266.963 81.3627 266.857 80.952 266.649 80.5783C266.442 80.2045 266.156 79.9046 265.791 79.6785C265.427 79.4524 265.016 79.3394 264.559 79.3394ZM272.276 91.3545V89.1951L277.322 84.5233C277.751 84.1081 278.111 83.7343 278.401 83.4021C278.697 83.0699 278.92 82.7446 279.073 82.4262C279.225 82.1032 279.301 81.7549 279.301 81.3811C279.301 80.9659 279.207 80.6083 279.017 80.3083C278.828 80.0038 278.57 79.7708 278.242 79.6093C277.915 79.4432 277.543 79.3601 277.128 79.3601C276.694 79.3601 276.316 79.4478 275.993 79.6232C275.67 79.7985 275.421 80.05 275.245 80.3776C275.07 80.7052 274.982 81.095 274.982 81.5472H272.138C272.138 80.6198 272.348 79.8146 272.768 79.1317C273.187 78.4489 273.776 77.9205 274.532 77.5468C275.289 77.1731 276.161 76.9862 277.149 76.9862C278.164 76.9862 279.047 77.1661 279.799 77.526C280.556 77.8813 281.144 78.375 281.564 79.0072C281.984 79.6393 282.194 80.3637 282.194 81.1804C282.194 81.7156 282.088 82.244 281.876 82.7654C281.668 83.2867 281.297 83.8658 280.762 84.5026C280.226 85.1347 279.472 85.8937 278.498 86.7796L276.429 88.8075V88.9044H282.381V91.3545H272.276ZM289.993 91.5483C289.264 91.5437 288.56 91.4214 287.882 91.1815C287.208 90.9415 286.604 90.5516 286.068 90.0118C285.533 89.4719 285.109 88.7568 284.795 87.8662C284.486 86.9757 284.331 85.8822 284.331 84.5856C284.336 83.3952 284.472 82.3316 284.739 81.395C285.012 80.4537 285.399 79.6554 285.902 79.0002C286.41 78.345 287.017 77.8467 287.722 77.5053C288.428 77.1592 289.22 76.9862 290.096 76.9862C291.042 76.9862 291.877 77.1708 292.602 77.5399C293.326 77.9044 293.908 78.4004 294.346 79.0279C294.789 79.6555 295.057 80.3591 295.149 81.1389H292.194C292.078 80.6452 291.836 80.2576 291.467 79.9761C291.098 79.6947 290.641 79.5539 290.096 79.5539C289.174 79.5539 288.472 79.9554 287.992 80.7582C287.517 81.5611 287.275 82.6523 287.266 84.0319H287.363C287.575 83.612 287.861 83.2544 288.221 82.9591C288.585 82.6592 288.998 82.4308 289.46 82.2739C289.926 82.1125 290.417 82.0317 290.934 82.0317C291.774 82.0317 292.521 82.2301 293.176 82.6269C293.832 83.0191 294.348 83.559 294.727 84.2465C295.105 84.934 295.294 85.7207 295.294 86.6066C295.294 87.5663 295.07 88.4199 294.623 89.1674C294.18 89.9149 293.559 90.5009 292.761 90.9254C291.967 91.3453 291.045 91.5529 289.993 91.5483ZM289.979 89.1951C290.44 89.1951 290.853 89.0844 291.218 88.8629C291.582 88.6414 291.868 88.3415 292.076 87.9631C292.283 87.5848 292.387 87.1603 292.387 86.6896C292.387 86.219 292.283 85.7968 292.076 85.4231C291.873 85.0493 291.591 84.7517 291.231 84.5302C290.872 84.3088 290.461 84.198 290 84.198C289.653 84.198 289.333 84.2626 289.037 84.3918C288.747 84.521 288.491 84.701 288.269 84.9317C288.052 85.1624 287.882 85.43 287.757 85.7345C287.632 86.0344 287.57 86.3551 287.57 86.6966C287.57 87.1534 287.674 87.5709 287.882 87.9493C288.094 88.3276 288.38 88.6299 288.74 88.856C289.104 89.082 289.517 89.1951 289.979 89.1951ZM300.061 89.4166L299.985 90.1779C299.925 90.787 299.81 91.3937 299.639 91.9982C299.473 92.6072 299.297 93.1586 299.113 93.6523C298.933 94.146 298.788 94.5336 298.677 94.8151H296.767C296.836 94.5428 296.93 94.1622 297.05 93.6731C297.17 93.1886 297.283 92.6441 297.39 92.0397C297.496 91.4352 297.563 90.8193 297.59 90.1917L297.625 89.4166H300.061ZM302.515 88.8629V86.5028L308.432 77.18H310.467V80.4468H309.263L305.532 86.3505V86.4612H313.941V88.8629H302.515ZM309.318 91.3545V88.1431L309.374 87.098V77.18H312.184V91.3545H309.318ZM321.178 91.5483C320.144 91.5483 319.223 91.3706 318.416 91.0154C317.613 90.6555 316.979 90.1617 316.513 89.5342C316.051 88.9021 315.814 88.1731 315.8 87.3471H318.817C318.836 87.6932 318.949 87.9977 319.157 88.2607C319.369 88.5191 319.65 88.7198 320.001 88.8629C320.352 89.0059 320.746 89.0774 321.184 89.0774C321.641 89.0774 322.045 88.9967 322.396 88.8352C322.746 88.6737 323.021 88.4499 323.219 88.1638C323.418 87.8778 323.517 87.5479 323.517 87.1741C323.517 86.7958 323.411 86.4612 323.199 86.1706C322.991 85.8753 322.691 85.6445 322.299 85.4784C321.911 85.3123 321.45 85.2293 320.915 85.2293H319.593V83.0284H320.915C321.367 83.0284 321.766 82.9499 322.112 82.793C322.463 82.6362 322.735 82.4193 322.929 82.1424C323.122 81.861 323.219 81.5334 323.219 81.1596C323.219 80.8044 323.134 80.4929 322.963 80.2253C322.797 79.9531 322.562 79.7408 322.257 79.5885C321.957 79.4363 321.607 79.3601 321.205 79.3601C320.799 79.3601 320.428 79.434 320.091 79.5816C319.754 79.7247 319.484 79.93 319.281 80.1976C319.078 80.4652 318.97 80.779 318.956 81.1389H316.084C316.097 80.3222 316.33 79.6024 316.783 78.9795C317.235 78.3566 317.844 77.8698 318.61 77.5191C319.38 77.1638 320.25 76.9862 321.219 76.9862C322.197 76.9862 323.053 77.1638 323.787 77.5191C324.52 77.8744 325.09 78.3543 325.496 78.9587C325.907 79.5586 326.11 80.2322 326.105 80.9797C326.11 81.7733 325.863 82.4354 325.365 82.9661C324.871 83.4967 324.227 83.8335 323.434 83.9766V84.0873C324.477 84.2211 325.27 84.5833 325.815 85.1739C326.364 85.7599 326.636 86.4935 326.631 87.3748C326.636 88.1823 326.403 88.8998 325.932 89.5273C325.466 90.1548 324.823 90.6485 324.001 91.0084C323.18 91.3683 322.239 91.5483 321.178 91.5483ZM334.226 91.5483C333.497 91.5437 332.793 91.4214 332.115 91.1815C331.441 90.9415 330.837 90.5516 330.301 90.0118C329.766 89.4719 329.342 88.7568 329.028 87.8662C328.719 86.9757 328.564 85.8822 328.564 84.5856C328.569 83.3952 328.705 82.3316 328.972 81.395C329.245 80.4537 329.632 79.6554 330.135 79.0002C330.643 78.345 331.25 77.8467 331.955 77.5053C332.661 77.1592 333.453 76.9862 334.329 76.9862C335.275 76.9862 336.11 77.1708 336.835 77.5399C337.559 77.9044 338.141 78.4004 338.579 79.0279C339.022 79.6555 339.29 80.3591 339.382 81.1389H336.427C336.311 80.6452 336.069 80.2576 335.7 79.9761C335.331 79.6947 334.874 79.5539 334.329 79.5539C333.407 79.5539 332.705 79.9554 332.225 80.7582C331.75 81.5611 331.508 82.6523 331.499 84.0319H331.596C331.808 83.612 332.094 83.2544 332.454 82.9591C332.818 82.6592 333.231 82.4308 333.693 82.2739C334.159 82.1125 334.65 82.0317 335.167 82.0317C336.007 82.0317 336.754 82.2301 337.409 82.6269C338.065 83.0191 338.581 83.559 338.96 84.2465C339.338 84.934 339.527 85.7207 339.527 86.6066C339.527 87.5663 339.303 88.4199 338.856 89.1674C338.413 89.9149 337.792 90.5009 336.994 90.9254C336.2 91.3453 335.278 91.5529 334.226 91.5483ZM334.212 89.1951C334.673 89.1951 335.086 89.0844 335.451 88.8629C335.815 88.6414 336.101 88.3415 336.309 87.9631C336.517 87.5848 336.62 87.1603 336.62 86.6896C336.62 86.219 336.517 85.7968 336.309 85.4231C336.106 85.0493 335.824 84.7517 335.465 84.5302C335.105 84.3088 334.694 84.198 334.233 84.198C333.886 84.198 333.566 84.2626 333.271 84.3918C332.98 84.521 332.724 84.701 332.502 84.9317C332.285 85.1624 332.115 85.43 331.99 85.7345C331.866 86.0344 331.803 86.3551 331.803 86.6966C331.803 87.1534 331.907 87.5709 332.115 87.9493C332.327 88.3276 332.613 88.6299 332.973 88.856C333.337 89.082 333.75 89.1951 334.212 89.1951Z" fill="#4D4D4D"/>
<path d="M244.834 109.354V101.255H247.57C248.206 101.255 248.725 101.369 249.129 101.599C249.535 101.826 249.835 102.133 250.03 102.52C250.226 102.908 250.323 103.34 250.323 103.818C250.323 104.295 250.226 104.729 250.03 105.119C249.838 105.509 249.54 105.82 249.137 106.052C248.733 106.282 248.216 106.396 247.586 106.396H245.625V105.526H247.555C247.99 105.526 248.339 105.451 248.603 105.301C248.866 105.15 249.057 104.947 249.176 104.692C249.297 104.433 249.358 104.142 249.358 103.818C249.358 103.493 249.297 103.203 249.176 102.947C249.057 102.692 248.865 102.491 248.599 102.346C248.332 102.199 247.979 102.125 247.539 102.125H245.814V109.354H244.834ZM253.564 109.497C253.179 109.497 252.83 109.424 252.516 109.279C252.202 109.132 251.953 108.919 251.769 108.643C251.584 108.363 251.492 108.026 251.492 107.63C251.492 107.282 251.56 107 251.697 106.784C251.835 106.565 252.018 106.394 252.247 106.27C252.477 106.146 252.73 106.053 253.006 105.993C253.286 105.93 253.567 105.879 253.849 105.843C254.218 105.795 254.517 105.759 254.747 105.736C254.979 105.709 255.147 105.666 255.253 105.605C255.361 105.545 255.415 105.439 255.415 105.289V105.257C255.415 104.867 255.308 104.564 255.095 104.348C254.884 104.131 254.563 104.023 254.134 104.023C253.688 104.023 253.339 104.121 253.086 104.316C252.832 104.511 252.655 104.719 252.552 104.941L251.666 104.624C251.824 104.255 252.035 103.968 252.299 103.762C252.565 103.554 252.855 103.409 253.169 103.327C253.485 103.243 253.796 103.201 254.102 103.201C254.297 103.201 254.521 103.224 254.774 103.272C255.03 103.317 255.277 103.41 255.514 103.553C255.754 103.695 255.953 103.91 256.111 104.197C256.269 104.485 256.348 104.87 256.348 105.352V109.354H255.415V108.532H255.368C255.304 108.664 255.199 108.805 255.051 108.955C254.904 109.105 254.707 109.233 254.462 109.339C254.217 109.444 253.917 109.497 253.564 109.497ZM253.707 108.658C254.076 108.658 254.387 108.586 254.64 108.441C254.896 108.296 255.088 108.109 255.217 107.879C255.349 107.65 255.415 107.409 255.415 107.156V106.301C255.376 106.349 255.288 106.392 255.154 106.432C255.022 106.469 254.869 106.502 254.695 106.531C254.524 106.557 254.356 106.581 254.193 106.602C254.032 106.62 253.902 106.636 253.801 106.649C253.559 106.681 253.332 106.732 253.121 106.804C252.913 106.872 252.744 106.976 252.615 107.116C252.488 107.253 252.425 107.44 252.425 107.678C252.425 108.002 252.545 108.247 252.785 108.413C253.028 108.577 253.335 108.658 253.707 108.658ZM258.436 111.633C258.277 111.633 258.136 111.619 258.012 111.593C257.889 111.569 257.803 111.546 257.755 111.522L257.993 110.699C258.219 110.757 258.42 110.778 258.594 110.762C258.768 110.747 258.922 110.669 259.057 110.529C259.194 110.392 259.319 110.169 259.432 109.861L259.606 109.386L257.36 103.28H258.372L260.049 108.121H260.113L261.789 103.28H262.802L260.223 110.24C260.107 110.554 259.964 110.814 259.792 111.02C259.621 111.228 259.422 111.382 259.195 111.482C258.971 111.582 258.718 111.633 258.436 111.633ZM264.034 109.354V103.28H264.936V104.229H265.015C265.141 103.905 265.346 103.653 265.628 103.473C265.91 103.292 266.249 103.201 266.644 103.201C267.045 103.201 267.378 103.292 267.645 103.473C267.914 103.653 268.123 103.905 268.274 104.229H268.337C268.492 103.915 268.726 103.666 269.037 103.481C269.348 103.294 269.721 103.201 270.156 103.201C270.699 103.201 271.144 103.371 271.489 103.711C271.834 104.048 272.007 104.574 272.007 105.289V109.354H271.074V105.289C271.074 104.841 270.951 104.52 270.706 104.328C270.461 104.135 270.172 104.039 269.84 104.039C269.413 104.039 269.082 104.168 268.847 104.427C268.612 104.682 268.495 105.007 268.495 105.4V109.354H267.546V105.194C267.546 104.848 267.434 104.57 267.21 104.359C266.986 104.146 266.697 104.039 266.344 104.039C266.101 104.039 265.874 104.104 265.663 104.233C265.455 104.362 265.286 104.541 265.157 104.771C265.031 104.997 264.967 105.26 264.967 105.558V109.354H264.034ZM276.261 109.481C275.675 109.481 275.17 109.352 274.746 109.093C274.324 108.832 273.998 108.469 273.769 108.002C273.542 107.533 273.429 106.987 273.429 106.365C273.429 105.742 273.542 105.194 273.769 104.719C273.998 104.242 274.317 103.87 274.726 103.604C275.137 103.335 275.617 103.201 276.166 103.201C276.482 103.201 276.794 103.253 277.103 103.359C277.411 103.464 277.692 103.636 277.945 103.873C278.198 104.108 278.4 104.419 278.55 104.806C278.701 105.194 278.776 105.671 278.776 106.238V106.633H274.093V105.827H277.827C277.827 105.484 277.758 105.178 277.621 104.909C277.487 104.64 277.294 104.428 277.044 104.272C276.796 104.117 276.503 104.039 276.166 104.039C275.794 104.039 275.472 104.131 275.201 104.316C274.932 104.498 274.725 104.735 274.58 105.028C274.435 105.32 274.362 105.634 274.362 105.969V106.507C274.362 106.966 274.441 107.355 274.599 107.674C274.76 107.99 274.983 108.231 275.268 108.397C275.553 108.561 275.884 108.643 276.261 108.643C276.506 108.643 276.727 108.608 276.925 108.54C277.125 108.469 277.298 108.363 277.443 108.223C277.588 108.081 277.7 107.904 277.779 107.693L278.681 107.947C278.586 108.252 278.427 108.521 278.202 108.753C277.978 108.983 277.701 109.162 277.372 109.291C277.042 109.418 276.672 109.481 276.261 109.481ZM281.129 105.7V109.354H280.196V103.28H281.097V104.229H281.177C281.319 103.92 281.535 103.673 281.825 103.485C282.115 103.296 282.49 103.201 282.948 103.201C283.36 103.201 283.72 103.285 284.028 103.454C284.337 103.62 284.576 103.873 284.748 104.213C284.919 104.551 285.005 104.978 285.005 105.494V109.354H284.072V105.558C284.072 105.081 283.948 104.709 283.7 104.442C283.452 104.174 283.112 104.039 282.679 104.039C282.381 104.039 282.115 104.104 281.881 104.233C281.648 104.362 281.465 104.551 281.331 104.798C281.196 105.046 281.129 105.347 281.129 105.7ZM289.352 103.28V104.071H286.204V103.28H289.352ZM287.122 101.824H288.055V107.614C288.055 107.878 288.093 108.076 288.17 108.208C288.249 108.337 288.349 108.424 288.47 108.469C288.594 108.511 288.725 108.532 288.862 108.532C288.965 108.532 289.049 108.527 289.115 108.516C289.181 108.503 289.234 108.492 289.273 108.484L289.463 109.323C289.4 109.347 289.312 109.37 289.198 109.394C289.085 109.42 288.941 109.434 288.767 109.434C288.503 109.434 288.245 109.377 287.992 109.264C287.741 109.15 287.533 108.977 287.367 108.745C287.204 108.513 287.122 108.221 287.122 107.867V101.824ZM294.951 104.64L294.112 104.877C294.059 104.738 293.982 104.602 293.879 104.47C293.779 104.336 293.642 104.225 293.468 104.138C293.293 104.051 293.071 104.007 292.799 104.007C292.427 104.007 292.118 104.093 291.87 104.264C291.625 104.433 291.502 104.648 291.502 104.909C291.502 105.141 291.586 105.324 291.755 105.459C291.924 105.593 292.187 105.705 292.546 105.795L293.448 106.017C293.991 106.148 294.396 106.35 294.662 106.622C294.928 106.891 295.061 107.237 295.061 107.662C295.061 108.01 294.961 108.321 294.761 108.595C294.563 108.869 294.286 109.086 293.93 109.244C293.574 109.402 293.16 109.481 292.688 109.481C292.069 109.481 291.556 109.347 291.15 109.078C290.744 108.809 290.487 108.416 290.379 107.899L291.265 107.678C291.349 108.005 291.508 108.25 291.743 108.413C291.98 108.577 292.29 108.658 292.673 108.658C293.108 108.658 293.453 108.566 293.709 108.382C293.967 108.194 294.096 107.97 294.096 107.709C294.096 107.498 294.023 107.322 293.875 107.179C293.727 107.034 293.5 106.926 293.195 106.855L292.182 106.618C291.626 106.486 291.217 106.282 290.956 106.005C290.698 105.725 290.569 105.376 290.569 104.957C290.569 104.614 290.665 104.311 290.857 104.047C291.052 103.783 291.317 103.576 291.652 103.426C291.99 103.276 292.372 103.201 292.799 103.201C293.4 103.201 293.872 103.332 294.215 103.596C294.56 103.86 294.806 104.208 294.951 104.64Z" fill="#717171"/>
</g>
</g>
</g>
<defs>
<clipPath id="clip0_211_2329">
<rect width="375.878" height="113.843" fill="white" transform="translate(0.924591 0.511719)"/>
</clipPath>
<clipPath id="clip1_211_2329">
<rect width="375.878" height="43" fill="white" transform="translate(0.924591 0.511719)"/>
</clipPath>
<clipPath id="clip2_211_2329">
<rect width="33.4113" height="33.4113" fill="white" transform="translate(0.924591 5.30615)"/>
</clipPath>
<clipPath id="clip3_211_2329">
<rect width="132.949" height="43" fill="white" transform="translate(45.473 0.511719)"/>
</clipPath>
<clipPath id="clip4_211_2329">
<rect width="132.949" height="43" fill="white" transform="translate(243.853 0.511719)"/>
</clipPath>
<clipPath id="clip5_211_2329">
<rect width="375.878" height="43" fill="white" transform="translate(0.924591 71.3545)"/>
</clipPath>
<clipPath id="clip6_211_2329">
<rect width="132.949" height="43" fill="white" transform="translate(45.473 71.3545)"/>
</clipPath>
<clipPath id="clip7_211_2329">
<rect width="132.949" height="43" fill="white" transform="translate(243.853 71.3545)"/>
</clipPath>
</defs>
</svg>
