<svg width="46" height="40" viewBox="0 0 46 40" fill="none" xmlns="http://www.w3.org/2000/svg">
<path d="M45.6659 26.8834C45.6659 33.8031 40.0564 39.4126 33.1366 39.4126L14.3428 39.4126C12.4206 39.4126 10.8624 37.8544 10.8624 35.9322L10.8624 12.2659C10.8624 8.4216 13.9788 5.30519 17.8231 5.30519L42.1856 5.30519C44.1077 5.30519 45.6659 6.8634 45.6659 8.78554L45.6659 26.8834Z" fill="#E8F5E9"/>
<path d="M20.1283 16.8909C19.9607 16.8909 19.8051 16.8448 19.6668 16.7707V16.7727C19.6668 17.0364 19.5643 17.284 19.3784 17.4695C19.1924 17.6555 18.945 17.7579 18.6816 17.7579C18.5115 17.7579 18.3539 17.7107 18.2142 17.6346C18.2001 17.8759 18.1036 18.1013 17.9316 18.2735C17.7456 18.4595 17.4982 18.562 17.2346 18.562C16.711 18.562 16.2857 18.1504 16.2551 17.6345C16.0931 17.722 15.9099 17.768 15.721 17.7558C15.2058 17.722 14.8024 17.277 14.8024 16.7423V12.3107L14.2978 13.1849C14.1056 13.5193 13.7458 13.7269 13.3585 13.7269C13.1697 13.7269 12.9832 13.6774 12.8181 13.5828C12.6125 13.4635 12.4654 13.2722 12.4042 13.0432C12.3427 12.8141 12.3745 12.5745 12.4934 12.3692C12.4936 12.3692 14.1445 9.5103 14.2452 9.33469C14.2572 9.30828 14.2913 9.2317 14.3203 9.16643C14.348 9.10411 14.3718 9.04016 14.3946 8.97587C14.8925 7.57031 16.1252 6.69721 17.612 6.69721C19.5426 6.69721 21.1134 8.40042 21.1134 10.494L21.1135 15.9055C21.1135 16.1688 21.0112 16.4163 20.8254 16.6025C20.6394 16.7884 20.392 16.8909 20.1283 16.8909L20.1283 16.8909ZM17.612 7.22075C16.3345 7.22075 15.3162 7.94234 14.8881 9.15096C14.8607 9.22771 14.8321 9.30446 14.7988 9.37924C14.7023 9.59588 14.7023 9.59587 14.675 9.62703L14.6714 9.62391C14.5366 9.87827 14.1362 10.5718 12.9467 12.6312C12.8978 12.7157 12.8849 12.8137 12.9098 12.9075C12.9351 13.0013 12.9956 13.0804 13.0794 13.1288C13.3395 13.2782 13.6957 13.1817 13.8439 12.9234L14.8376 11.2031C14.8969 11.1007 15.017 11.0503 15.1321 11.0815C15.2466 11.1121 15.3261 11.2159 15.3261 11.3343V16.7425C15.3261 16.9976 15.5186 17.2179 15.7553 17.2335C15.8917 17.2407 16.019 17.1949 16.1146 17.0995C16.2015 17.0126 16.2494 16.8968 16.2494 16.773V13.236C16.2494 13.0913 16.3666 12.9741 16.5113 12.9741C16.6559 12.9741 16.7732 13.0912 16.7732 13.236L16.773 17.5769C16.773 17.8314 16.9801 18.0386 17.2346 18.0386C17.3583 18.0386 17.4744 17.9907 17.5615 17.9038C17.6484 17.8167 17.6963 17.7006 17.6963 17.5769V13.236C17.6963 13.0913 17.8134 12.9741 17.9582 12.9741C18.1028 12.9741 18.2201 13.0912 18.2201 13.236L18.2199 16.7323V16.773C18.2199 17.0273 18.427 17.2344 18.6817 17.2344C18.8052 17.2344 18.921 17.1864 19.0086 17.0991C19.0955 17.0124 19.1434 16.8966 19.1434 16.7728V13.2358C19.1434 13.0911 19.2604 12.9739 19.4053 12.9739C19.5499 12.9739 19.6671 13.091 19.6671 13.2358L19.6668 15.9056C19.6668 16.1603 19.8739 16.3674 20.1283 16.3674C20.2521 16.3674 20.3679 16.3194 20.4548 16.2326C20.542 16.1454 20.5898 16.0292 20.5898 15.9056L20.5899 10.4941C20.5899 8.68938 19.2541 7.22081 17.612 7.22081L17.612 7.22075Z" fill="#103E13"/>
<path d="M9.83862 20.6521L13.639 18.3722C14.0972 18.0971 14.6867 18.214 14.9806 18.6386C15.0878 18.7932 15.1426 18.9734 15.1511 19.157C15.2928 19.083 15.447 19.0428 15.6039 19.0428C15.6843 19.0428 15.765 19.0528 15.8447 19.0727C16.1 19.1365 16.3151 19.296 16.4505 19.5217C16.5859 19.7476 16.6254 20.0125 16.5616 20.2675C16.5028 20.5035 16.3593 20.7021 16.1597 20.8384C16.2993 20.9207 16.4196 21.033 16.5052 21.176C16.6407 21.402 16.6802 21.6667 16.6166 21.9221C16.5528 22.1771 16.3932 22.3922 16.1672 22.5279L16.1659 22.5287C16.303 22.6108 16.4213 22.722 16.5059 22.8629C16.6415 23.0889 16.681 23.3537 16.6172 23.6091C16.5533 23.8642 16.3937 24.0794 16.1681 24.2149L11.5278 26.9986C10.6617 27.518 9.66056 27.6973 8.70908 27.5029C7.74907 27.3068 6.95402 26.755 6.47059 25.9491C5.70555 24.6741 5.82021 23.1676 6.76922 22.0178C6.81268 21.9654 6.85548 21.9119 6.89435 21.8565C6.93551 21.7979 6.98356 21.7291 6.99996 21.7054C7.09819 21.53 8.70107 18.642 8.70091 18.6424C8.86277 18.3503 9.16615 18.185 9.47904 18.1852C9.625 18.1852 9.77308 18.2211 9.9097 18.2968C10.0747 18.389 10.2132 18.5233 10.3102 18.6852C10.5094 19.0173 10.5165 19.4328 10.3289 19.7691L9.83862 20.6521ZM9.86141 18.9544C9.81058 18.8696 9.74072 18.802 9.65527 18.7542C9.47865 18.6564 9.25628 18.7201 9.15905 18.896C8.01209 20.9623 7.62112 21.6665 7.47023 21.9171L7.47368 21.9179C7.46105 21.9599 7.46105 21.9599 7.32297 22.1572C7.27607 22.2239 7.22507 22.288 7.17308 22.3512C6.35703 23.3399 6.26228 24.5841 6.91938 25.6797C7.32641 26.3583 7.99912 26.8236 8.81366 26.9899C9.63705 27.1573 10.5049 27.0015 11.2581 26.5496L15.8988 23.7656C16.0048 23.7022 16.0796 23.6013 16.1094 23.4818C16.1393 23.3624 16.1207 23.2382 16.0571 23.1323C15.9262 22.9142 15.642 22.8425 15.4239 22.9739L13.1346 24.3473C13.0106 24.4218 12.8496 24.3818 12.7753 24.2576C12.7008 24.1336 12.741 23.9728 12.865 23.8983L15.1545 22.5249L15.898 22.0788C16.004 22.0152 16.0789 21.9143 16.1088 21.7951C16.1386 21.6756 16.1201 21.5513 16.0564 21.4455C15.9254 21.2272 15.6412 21.1562 15.4233 21.2871L12.3902 23.1066C12.2659 23.1812 12.1054 23.1408 12.0309 23.0169C11.9565 22.8929 11.9968 22.732 12.1206 22.6576L15.8431 20.4245C15.949 20.3609 16.0238 20.2602 16.0537 20.1406C16.0835 20.0212 16.065 19.8971 16.0015 19.7911C15.938 19.6854 15.8372 19.6106 15.7176 19.5807C15.5974 19.5509 15.4738 19.5694 15.3682 19.6327L14.6791 20.0462C14.6789 20.0462 14.6789 20.0463 14.6788 20.0463H14.6786L11.6457 21.8658C11.5214 21.9406 11.3607 21.9003 11.2864 21.7761C11.212 21.6521 11.2523 21.4913 11.3761 21.4168L14.4092 19.5973C14.5151 19.5337 14.59 19.4328 14.6199 19.3136C14.6527 19.1827 14.6278 19.0489 14.55 18.9368C14.4152 18.7418 14.1269 18.6899 13.9083 18.8213L9.27098 21.6033C9.16947 21.664 9.03943 21.6492 8.95431 21.567C8.86904 21.4847 8.84985 21.3553 8.90725 21.2518L9.87153 19.5145C9.96829 19.3408 9.96451 19.1263 9.86136 18.9545L9.86141 18.9544Z" fill="#103E13"/>
<path d="M27.9984 25.949C27.5151 26.755 26.7202 27.3067 25.7601 27.5028C24.8084 27.6968 23.8076 27.5179 22.9413 26.9985L18.3006 24.2146C18.0748 24.0792 17.9151 23.864 17.8511 23.6085C17.7877 23.3535 17.8274 23.0886 17.9626 22.863C18.0471 22.7219 18.1655 22.6107 18.3028 22.5286L18.3015 22.5278C18.0756 22.3923 17.9159 22.1772 17.8523 21.922C17.7883 21.6668 17.828 21.4018 17.9635 21.1758C18.0507 21.0307 18.1703 20.9172 18.3067 20.8367C18.1086 20.7004 17.9659 20.5025 17.9072 20.2676C17.8433 20.0123 17.883 19.7474 18.0184 19.5218C18.1537 19.2959 18.369 19.1364 18.6242 19.0726C18.7039 19.0526 18.7848 19.0427 18.8648 19.0427C19.0219 19.0429 19.1761 19.0828 19.3177 19.1569C19.3264 18.9734 19.381 18.7932 19.4883 18.6385C19.7823 18.2143 20.3714 18.0968 20.8302 18.3722L24.6305 20.6517L24.1406 19.7694C23.9527 19.4325 23.9596 19.017 24.1588 18.6847C24.2559 18.523 24.3946 18.3887 24.5604 18.2957C24.6967 18.2203 24.8443 18.1846 24.9899 18.1846C25.3026 18.1847 25.6064 18.3497 25.7681 18.6418C26.3315 19.6571 27.3949 21.5718 27.4696 21.7055C27.4855 21.7286 27.5336 21.7975 27.5747 21.856C27.6139 21.9116 27.6562 21.9648 27.7 22.0176C28.6489 23.1678 28.7634 24.6741 27.9983 25.949L27.9984 25.949ZM27.296 22.3513C27.2439 22.2882 27.1927 22.2237 27.1461 22.1573C27.0044 21.9563 27.0008 21.951 26.9902 21.8984C26.8245 21.6244 26.4205 20.8969 25.3097 18.8958C25.2123 18.7202 24.9909 18.6561 24.8147 18.7535C24.7279 18.802 24.6582 18.8697 24.6074 18.9545C24.5044 19.1262 24.5004 19.3407 24.5977 19.5149L25.5616 21.2518C25.6192 21.3554 25.6 21.4846 25.5149 21.5669C25.43 21.6494 25.3001 21.6639 25.1981 21.6032L20.5607 18.8212C20.3421 18.6902 20.054 18.7415 19.9189 18.9367C19.8411 19.0488 19.8164 19.1826 19.8488 19.3133C19.8787 19.4327 19.9536 19.5334 20.0597 19.5971C20.0601 19.5972 20.0602 19.5975 20.0606 19.5977L23.0926 21.4167C23.2166 21.4912 23.2568 21.6519 23.1823 21.776C23.1079 21.8998 22.9473 21.9403 22.823 21.8657L19.1006 19.6327C18.9949 19.5694 18.8706 19.5507 18.7512 19.5807C18.6315 19.6105 18.5308 19.6853 18.4674 19.7914C18.4037 19.8972 18.3854 20.0213 18.4149 20.1407C18.4447 20.2601 18.5197 20.3609 18.6256 20.4246L19.35 20.859L22.3479 22.6577C22.4719 22.7321 22.5121 22.8928 22.4376 23.017C22.3632 23.1408 22.2026 23.1811 22.0783 23.1067L19.0456 21.2872C18.8275 21.156 18.5435 21.2272 18.4123 21.4456C18.3487 21.5515 18.3303 21.6757 18.3598 21.7951C18.3897 21.9145 18.4646 22.0151 18.5707 22.0789L19.3142 22.525L21.6034 23.8984C21.7274 23.9729 21.7676 24.1336 21.6931 24.2577C21.6187 24.3816 21.4581 24.4222 21.3338 24.3475L19.0446 22.974C18.939 22.9107 18.8152 22.892 18.6952 22.922C18.5758 22.9519 18.4748 23.0266 18.4113 23.1324C18.3478 23.2384 18.3293 23.3627 18.3588 23.4819C18.3887 23.6013 18.4636 23.702 18.5697 23.7658L23.2104 26.5497C23.9635 27.0015 24.832 27.1579 25.6549 26.99C26.4693 26.8237 27.142 26.3584 27.549 25.6799C28.2068 24.584 28.1122 23.3397 27.2963 22.3513L27.296 22.3513Z" fill="#103E13"/>
</svg>
